<?xml version="1.0" encoding="utf-8"?>
<!-- Generator: Adobe Illustrator 25.1.0, SVG Export Plug-In . SVG Version: 6.00 Build 0)  -->
<svg version="1.1" id="Layer_1" xmlns="http://www.w3.org/2000/svg" xmlns:xlink="http://www.w3.org/1999/xlink" x="0px" y="0px"
	 viewBox="0 0 361 97" style="enable-background:new 0 0 361 97;" xml:space="preserve">
<style type="text/css">
	.st0{fill:#0092FF;}
	.st1{fill:#007ACC;}
	.st2{fill:url(#SVGID_1_);}
	.st3{fill:#FFFFFF;}
	.st4{fill:#008CFF;}
</style>
<g>
	<g>
		<path class="st0" d="M110.8,40c-0.3-0.3-0.5-0.7-0.5-1.2c0-0.5,0.2-0.9,0.5-1.2c0.3-0.3,0.7-0.5,1.2-0.5s0.9,0.2,1.2,0.5
			c0.3,0.3,0.5,0.7,0.5,1.2c0,0.5-0.2,0.9-0.5,1.2s-0.7,0.5-1.2,0.5S111.1,40.4,110.8,40z M113.1,43.9v17.9h-2.3V43.9H113.1z"/>
		<path class="st0" d="M132,45.6c1.4,1.3,2,3.2,2,5.8v10.5h-2.3V51.6c0-1.9-0.5-3.4-1.5-4.5c-1-1-2.3-1.5-4-1.5
			c-1.7,0-3.1,0.5-4.1,1.6c-1,1.1-1.5,2.7-1.5,4.8v9.8h-2.3V43.9h2.3V47c0.6-1.1,1.4-1.9,2.5-2.5c1.1-0.6,2.3-0.9,3.6-0.9
			C128.9,43.6,130.6,44.2,132,45.6z"/>
		<path class="st0" d="M146.1,45.9H142v16h-2.3v-16h-2.5v-1.9h2.5v-1.2c0-1.9,0.5-3.4,1.5-4.3c1-0.9,2.6-1.4,4.8-1.4v2
			c-1.5,0-2.5,0.3-3.1,0.9c-0.6,0.6-0.9,1.5-0.9,2.9v1.2h4.2V45.9z"/>
		<path class="st0" d="M153.1,61c-1.3-0.8-2.4-1.8-3.2-3.2c-0.8-1.4-1.2-3-1.2-4.9c0-1.9,0.4-3.5,1.2-4.9c0.8-1.4,1.9-2.5,3.2-3.2
			c1.4-0.8,2.9-1.1,4.6-1.1c1.7,0,3.2,0.4,4.6,1.1c1.4,0.8,2.4,1.8,3.2,3.2c0.8,1.4,1.2,3,1.2,4.9c0,1.8-0.4,3.5-1.2,4.9
			c-0.8,1.4-1.9,2.5-3.3,3.2c-1.4,0.8-2.9,1.1-4.6,1.1C155.9,62.1,154.4,61.7,153.1,61z M160.9,59.3c1-0.5,1.8-1.3,2.4-2.4
			c0.6-1.1,0.9-2.4,0.9-4c0-1.6-0.3-2.9-0.9-4c-0.6-1.1-1.4-1.9-2.4-2.4c-1-0.5-2.1-0.8-3.3-0.8c-1.2,0-2.3,0.3-3.3,0.8
			c-1,0.5-1.8,1.3-2.4,2.4c-0.6,1.1-0.9,2.4-0.9,4c0,1.6,0.3,2.9,0.9,4c0.6,1.1,1.4,1.9,2.4,2.4c1,0.5,2.1,0.8,3.3,0.8
			C158.8,60.1,159.9,59.8,160.9,59.3z"/>
		<path class="st0" d="M175.4,44.5c1-0.6,2.3-0.9,3.8-0.9V46h-0.6c-1.7,0-3,0.4-4,1.3c-1,0.9-1.5,2.4-1.5,4.5v10h-2.3V43.9h2.3v3.2
			C173.6,46,174.4,45.1,175.4,44.5z"/>
		<path class="st0" d="M209.2,45.6c1.3,1.3,2,3.2,2,5.8v10.5h-2.3V51.6c0-1.9-0.5-3.4-1.4-4.5c-0.9-1-2.2-1.5-3.8-1.5
			c-1.7,0-3,0.6-4,1.7c-1,1.1-1.5,2.7-1.5,4.9v9.7h-2.3V51.6c0-1.9-0.5-3.4-1.4-4.5c-0.9-1-2.2-1.5-3.9-1.5c-1.7,0-3,0.6-4,1.7
			c-1,1.1-1.5,2.7-1.5,4.9v9.7h-2.3V43.9h2.3V47c0.6-1.1,1.4-2,2.4-2.5s2.2-0.9,3.5-0.9c1.6,0,2.9,0.4,4.1,1.1
			c1.2,0.7,2,1.8,2.5,3.3c0.5-1.4,1.3-2.5,2.5-3.3c1.2-0.8,2.5-1.1,4-1.1C206.2,43.6,207.9,44.2,209.2,45.6z"/>
		<path class="st0" d="M216.3,48c0.7-1.4,1.8-2.5,3.1-3.2c1.3-0.8,2.8-1.1,4.4-1.1c1.7,0,3.2,0.4,4.4,1.2c1.2,0.8,2.1,1.8,2.7,3
			v-3.9h2.3v17.9h-2.3v-4c-0.6,1.2-1.5,2.2-2.7,3c-1.2,0.8-2.7,1.2-4.4,1.2c-1.6,0-3.1-0.4-4.4-1.1c-1.3-0.8-2.3-1.8-3.1-3.2
			c-0.7-1.4-1.1-3-1.1-4.9S215.6,49.4,216.3,48z M230,49.1c-0.6-1.1-1.4-1.9-2.4-2.5c-1-0.6-2.1-0.9-3.4-0.9c-1.3,0-2.4,0.3-3.4,0.9
			c-1,0.6-1.8,1.4-2.4,2.5c-0.6,1.1-0.9,2.4-0.9,3.9c0,1.5,0.3,2.8,0.9,3.9c0.6,1.1,1.4,1.9,2.4,2.5c1,0.6,2.1,0.9,3.4,0.9
			c1.2,0,2.3-0.3,3.4-0.9c1-0.6,1.8-1.4,2.4-2.5c0.6-1.1,0.9-2.4,0.9-3.8C230.9,51.4,230.6,50.2,230,49.1z"/>
		<path class="st0" d="M241.4,45.9V57c0,1.1,0.2,1.8,0.6,2.3c0.4,0.4,1.2,0.6,2.2,0.6h2.1v2h-2.5c-1.6,0-2.8-0.4-3.6-1.1
			c-0.8-0.8-1.2-2-1.2-3.7V45.9h-2.5v-1.9h2.5v-4.5h2.3v4.5h4.9v1.9H241.4z"/>
		<path class="st0" d="M250.1,40c-0.3-0.3-0.5-0.7-0.5-1.2c0-0.5,0.2-0.9,0.5-1.2c0.3-0.3,0.7-0.5,1.2-0.5c0.5,0,0.9,0.2,1.2,0.5
			c0.3,0.3,0.5,0.7,0.5,1.2c0,0.5-0.2,0.9-0.5,1.2c-0.3,0.3-0.7,0.5-1.2,0.5C250.8,40.5,250.4,40.4,250.1,40z M252.4,43.9v17.9h-2.3
			V43.9H252.4z"/>
		<path class="st0" d="M260.9,61c-1.3-0.8-2.4-1.8-3.2-3.2c-0.8-1.4-1.2-3-1.2-4.9c0-1.9,0.4-3.5,1.2-4.9c0.8-1.4,1.9-2.5,3.2-3.2
			c1.4-0.8,2.9-1.1,4.6-1.1c1.7,0,3.2,0.4,4.6,1.1c1.4,0.8,2.4,1.8,3.2,3.2c0.8,1.4,1.2,3,1.2,4.9c0,1.8-0.4,3.5-1.2,4.9
			c-0.8,1.4-1.9,2.5-3.3,3.2c-1.4,0.8-2.9,1.1-4.6,1.1C263.8,62.1,262.3,61.7,260.9,61z M268.8,59.3c1-0.5,1.8-1.3,2.4-2.4
			c0.6-1.1,0.9-2.4,0.9-4c0-1.6-0.3-2.9-0.9-4c-0.6-1.1-1.4-1.9-2.4-2.4c-1-0.5-2.1-0.8-3.3-0.8c-1.2,0-2.3,0.3-3.3,0.8
			c-1,0.5-1.8,1.3-2.4,2.4c-0.6,1.1-0.9,2.4-0.9,4c0,1.6,0.3,2.9,0.9,4c0.6,1.1,1.4,1.9,2.4,2.4c1,0.5,2.1,0.8,3.3,0.8
			C266.7,60.1,267.8,59.8,268.8,59.3z"/>
		<path class="st0" d="M292.4,45.6c1.4,1.3,2,3.2,2,5.8v10.5h-2.3V51.6c0-1.9-0.5-3.4-1.5-4.5c-1-1-2.3-1.5-4-1.5
			c-1.7,0-3.1,0.5-4.1,1.6c-1,1.1-1.5,2.7-1.5,4.8v9.8h-2.3V43.9h2.3V47c0.6-1.1,1.4-1.9,2.5-2.5c1.1-0.6,2.3-0.9,3.6-0.9
			C289.3,43.6,291,44.2,292.4,45.6z"/>
		<path class="st1" d="M298.9,47.7c0.7-1.4,1.7-2.5,2.9-3.3c1.2-0.8,2.6-1.1,4.1-1.1c1.3,0,2.4,0.3,3.4,0.8c1,0.5,1.7,1.2,2.2,2.1
			v-2.6h5.6v18.3h-5.6v-2.6c-0.5,0.9-1.3,1.5-2.3,2.1c-1,0.5-2.1,0.8-3.4,0.8c-1.5,0-2.8-0.4-4.1-1.2c-1.2-0.8-2.2-1.9-2.9-3.3
			c-0.7-1.4-1.1-3.1-1.1-5C297.8,50.8,298.1,49.1,298.9,47.7z M310.4,49.4c-0.8-0.8-1.7-1.2-2.8-1.2c-1.1,0-2.1,0.4-2.8,1.2
			c-0.8,0.8-1.2,1.9-1.2,3.3c0,1.4,0.4,2.5,1.2,3.3c0.8,0.8,1.7,1.2,2.8,1.2c1.1,0,2.1-0.4,2.8-1.2c0.8-0.8,1.2-1.9,1.2-3.3
			C311.5,51.3,311.1,50.2,310.4,49.4z"/>
		<path class="st1" d="M331.6,44c1,0.5,1.7,1.2,2.2,2.1v-2.6h5.6v18.3c0,1.7-0.3,3.2-1,4.6c-0.7,1.4-1.7,2.5-3.1,3.3
			c-1.4,0.8-3.1,1.2-5.1,1.2c-2.7,0-4.9-0.6-6.6-1.9c-1.7-1.3-2.6-3-2.9-5.2h5.5c0.2,0.7,0.6,1.3,1.2,1.7c0.7,0.4,1.5,0.6,2.4,0.6
			c1.2,0,2.1-0.3,2.8-1c0.7-0.7,1-1.7,1-3.2v-2.6c-0.5,0.9-1.3,1.5-2.3,2.1c-1,0.5-2.1,0.8-3.4,0.8c-1.5,0-2.9-0.4-4.1-1.2
			c-1.2-0.8-2.2-1.9-2.9-3.3c-0.7-1.4-1.1-3.1-1.1-5c0-1.9,0.4-3.5,1.1-5c0.7-1.4,1.7-2.5,2.9-3.3c1.2-0.8,2.6-1.1,4.1-1.1
			C329.5,43.3,330.6,43.5,331.6,44z M332.6,49.4c-0.8-0.8-1.7-1.2-2.8-1.2c-1.1,0-2.1,0.4-2.8,1.2c-0.8,0.8-1.2,1.9-1.2,3.3
			c0,1.4,0.4,2.5,1.2,3.3c0.8,0.8,1.7,1.2,2.8,1.2c1.1,0,2.1-0.4,2.8-1.2c0.8-0.8,1.2-1.9,1.2-3.3C333.8,51.3,333.4,50.2,332.6,49.4
			z"/>
		<path class="st1" d="M360.7,54H348c0.1,1.1,0.5,2,1.1,2.6c0.6,0.6,1.4,0.9,2.4,0.9c1.4,0,2.4-0.6,2.9-1.8h6
			c-0.3,1.2-0.9,2.3-1.7,3.2c-0.8,1-1.8,1.7-3,2.3c-1.2,0.5-2.5,0.8-4,0.8c-1.8,0-3.4-0.4-4.8-1.1c-1.4-0.8-2.5-1.9-3.3-3.3
			c-0.8-1.4-1.2-3.1-1.2-5c0-1.9,0.4-3.6,1.2-5c0.8-1.4,1.9-2.5,3.3-3.3c1.4-0.8,3-1.1,4.8-1.1c1.8,0,3.3,0.4,4.7,1.1
			c1.4,0.7,2.5,1.8,3.2,3.2s1.2,3,1.2,4.8C360.8,52.9,360.7,53.5,360.7,54z M355,50.9c0-1-0.3-1.7-1-2.3c-0.7-0.6-1.5-0.9-2.5-0.9
			c-0.9,0-1.7,0.3-2.4,0.8c-0.6,0.5-1,1.3-1.2,2.3H355z"/>
	</g>
	<g>
		<g>
			<linearGradient id="SVGID_1_" gradientUnits="userSpaceOnUse" x1="0.2363" y1="48.5855" x2="89.2363" y2="48.5855">
				<stop  offset="0.1443" style="stop-color:#007ACC"/>
				<stop  offset="0.268" style="stop-color:#0089E5"/>
				<stop  offset="0.4639" style="stop-color:#008CFF"/>
			</linearGradient>
			<path class="st2" d="M5.7,17.1c-3,3.2-5.5,9.5-5.5,13.9v38.5c0,4.4,2.7,10.4,5.9,13.4l9.2,8.3c3.3,3,9.5,4.9,13.8,4.2l52.2-7.7
				c4.4-0.6,7.9-4.8,7.9-9.2V20.4c0-4.4-3.5-8.6-7.9-9.4L29.1,1.8c-4.3-0.8-10.3,1.3-13.3,4.5L5.7,17.1z"/>
		</g>
		<path class="st3" d="M42,85.9l-0.1,0c-3.6,0.3-6.6-2.8-6.6-7v-45c0-4.2,3-7.3,6.6-6.8l0.1,0c3.5,0.4,6.3,4,6.3,8V78
			C48.2,82,45.4,85.5,42,85.9z"/>
		<path class="st3" d="M75.4,82.7L75.4,82.7c-2.8,0.3-5.1-2.5-5.1-6.2V37c0-3.7,2.3-6.4,5.1-6.1l0.1,0c2.7,0.3,4.9,3.5,4.9,7v38
			C80.2,79.4,78.1,82.5,75.4,82.7z"/>
		<path class="st3" d="M80.2,57c0,14-8.8,26.1-20.6,27.2c-13,1.2-24.4-11.2-24.4-27.8s11.5-28.7,24.4-27.1
			C71.5,30.6,80.2,43,80.2,57z"/>
		<path class="st4" d="M70.2,57c0,7.3-4.6,13.5-10.5,13.7c-6.2,0.3-11.5-6-11.5-14s5.3-14.1,11.5-13.7C65.6,43.4,70.2,49.7,70.2,57z
			"/>
		<path class="st3" d="M48.2,17.9c0,4.1-2.8,7-6.3,6.6c-3.6-0.4-6.7-4.3-6.7-8.5s3-7.2,6.7-6.5C45.4,10.1,48.2,13.9,48.2,17.9z"/>
	</g>
</g>
</svg>
