<?xml version="1.0" encoding="utf-8"?>
<!-- Generator: Adobe Illustrator 25.1.0, SVG Export Plug-In . SVG Version: 6.00 Build 0)  -->
<svg version="1.1" id="Layer_1" xmlns="http://www.w3.org/2000/svg" xmlns:xlink="http://www.w3.org/1999/xlink" x="0px" y="0px"
	 viewBox="0 0 90 100" style="enable-background:new 0 0 90 100;" xml:space="preserve">
<style type="text/css">
	.st0{fill:url(#SVGID_1_);}
	.st1{fill:#FFFFFF;}
	.st2{fill:#008CFF;}
</style>
<g>
	<g>
		<linearGradient id="SVGID_1_" gradientUnits="userSpaceOnUse" x1="0.5" y1="50.0855" x2="89.5" y2="50.0855">
			<stop  offset="0.1443" style="stop-color:#007ACC"/>
			<stop  offset="0.268" style="stop-color:#0089E5"/>
			<stop  offset="0.4639" style="stop-color:#008CFF"/>
		</linearGradient>
		<path class="st0" d="M6,18.6c-3,3.2-5.5,9.5-5.5,13.9V71c0,4.4,2.7,10.4,5.9,13.4l9.2,8.3c3.3,3,9.5,4.9,13.8,4.2l52.2-7.7
			c4.4-0.6,7.9-4.8,7.9-9.2V21.9c0-4.4-3.5-8.6-7.9-9.4L29.4,3.3C25,2.6,19,4.6,16,7.8L6,18.6z"/>
	</g>
	<path class="st1" d="M42.2,87.4l-0.1,0c-3.6,0.3-6.6-2.8-6.6-7v-45c0-4.2,3-7.3,6.6-6.8l0.1,0c3.5,0.4,6.3,4,6.3,8v42.9
		C48.5,83.5,45.7,87,42.2,87.4z"/>
	<path class="st1" d="M75.6,84.2L75.6,84.2c-2.8,0.3-5.1-2.5-5.1-6.2V38.5c0-3.7,2.3-6.4,5.1-6.1l0.1,0c2.7,0.3,4.9,3.5,4.9,7v38
		C80.5,80.9,78.3,84,75.6,84.2z"/>
	<path class="st1" d="M80.5,58.5c0,14-8.8,26.1-20.6,27.2c-13,1.2-24.4-11.2-24.4-27.8S47,29.2,59.9,30.7
		C71.7,32.1,80.5,44.5,80.5,58.5z"/>
	<path class="st2" d="M70.5,58.5c0,7.3-4.6,13.5-10.5,13.7c-6.2,0.3-11.5-6-11.5-14S53.8,44.1,60,44.6
		C65.9,44.9,70.5,51.2,70.5,58.5z"/>
	<path class="st1" d="M48.5,19.4c0,4.1-2.8,7-6.3,6.6c-3.6-0.4-6.7-4.3-6.7-8.5s3-7.2,6.7-6.5C45.7,11.6,48.5,15.4,48.5,19.4z"/>
</g>
</svg>
