<?xml version="1.0" encoding="utf-8"?>
<!-- Generator: Adobe Illustrator 22.1.0, SVG Export Plug-In . SVG Version: 6.00 Build 0)  -->
<svg version="1.1" id="Layer_1" xmlns="http://www.w3.org/2000/svg" xmlns:xlink="http://www.w3.org/1999/xlink" x="0px" y="0px"
	 viewBox="0 0 256 256" style="enable-background:new 0 0 256 256;" xml:space="preserve">
<g>
	<path d="M190.8,76.2c16.8,16,29,34.4,32.3,57.3c5.8,39.1-7.5,71.2-39.4,94.2c-18.2,13.1-16.1,12.4-28.2-4.3
		c-24-33.4-28.2-70-13.7-108.5c0.8-2.2,3.4-4.6,5.6-5.3c17.2-6,31.3-16,41.5-31.3C189.5,77.7,190.1,77.1,190.8,76.2z"/>
	<path d="M63.8,78.6c4.9,5.1,9.5,10.5,14.7,15.3c7.8,7.2,17,12.2,27.2,15.3c2.2,0.7,4.6,2.8,5.5,4.9c11.4,25,11.2,50.6,3.7,76.5
		c-4.6,15.9-12.4,30.1-23.8,42.2c-2.7,2.9-4.7,3.3-8.4,1.4C30.4,208,12,133.6,57.1,84.9C59.3,82.6,61.7,80.6,63.8,78.6z"/>
	<path d="M158.8,57.6c6.3,3.1,11.9,5.9,17.5,8.7c-3.2,14.5-23.8,28.4-44.7,30.4c-21.5,2.1-46.7-11-54.3-28.8c5.4-3,10.8-6,16.8-9.3
		c-2.1-3.1-3.9-6-5.9-8.8c-3.4-4.8-7.1-9.3-10.1-14.2c-3.1-5-1.8-10.7,2.6-13.8c4.8-3.3,10.1-2.5,14,2.6
		c6.6,8.6,12.9,17.4,19.6,25.9c1.3,1.6,4,3.1,6.1,3.1c19.5,0.2,14.6,1.2,25.1-12.1c4.3-5.5,8.3-11.3,12.6-16.8
		c4.7-6.1,8.4-6.8,13.4-3.2c5.8,4.2,6.7,9,2.5,15.1C169.2,43.4,164.1,50.2,158.8,57.6z"/>
</g>
</svg>
