<?xml version="1.0" encoding="utf-8"?>
<!-- Generator: Adobe Illustrator 22.1.0, SVG Export Plug-In . SVG Version: 6.00 Build 0)  -->
<svg version="1.1" id="Layer_1" xmlns="http://www.w3.org/2000/svg" xmlns:xlink="http://www.w3.org/1999/xlink" x="0px" y="0px"
	 viewBox="0 0 256 256" style="enable-background:new 0 0 256 256;" xml:space="preserve">
<path d="M128.3,22c58.2-0.1,105.6,47.2,105.6,105.4C234.1,187,187,234,127.4,234C69.1,234,22.1,186.6,22,127.8
	C21.9,69,69.2,22.1,128.3,22z M119.7,207.9c18.1,7.8,54.4-6.5,72-28.2c22.8-28,24-68.8,2.9-98.5c-16.7-23.3-53-39.4-73.5-32.1
	c22.6,21.8,34.9,48.1,34.6,79.6C155.4,160.4,142.7,186.5,119.7,207.9z"/>
</svg>
