<?xml version="1.0" encoding="utf-8"?>
<!-- Generator: Adobe Illustrator 22.1.0, SVG Export Plug-In . SVG Version: 6.00 Build 0)  -->
<svg version="1.1" id="Layer_1" xmlns="http://www.w3.org/2000/svg" xmlns:xlink="http://www.w3.org/1999/xlink" x="0px" y="0px"
	 viewBox="0 0 256 256" style="enable-background:new 0 0 256 256;" xml:space="preserve">
<path d="M144.5,124.6c-4.9,2.2-8.6,4.6-12.6,5.6c-28.5,6.8-57,13.3-85.5,19.8c-2.4,0.6-5.3,0.7-7.6-0.1c-3.2-1.1-4.5-3.9-2.6-7.2
	c9.7-16.9,19.4-33.8,29.3-50.5c1.1-1.9,3.2-3.4,5-4.8c17.4-14.2,35.1-28.1,52-42.8c6.8-5.9,12.3-13.5,18-20.7
	c2.1-2.7,4.4-5.3,7.6-3.7c3.1,1.5,5.5,4.5,4.3,8.6c-2.6,8.7-5.4,17.4-8,26.2c-0.7,2.2-1.3,4.4-1.9,6.4c7,1.8,14,2.8,20.4,5.4
	c32.3,13.2,52.5,36.9,57.1,71.6c7.1,52.4-35.8,99.6-89.5,98c-34.9-1-66.9-24.8-77.3-57.9c-1.6-5.1-1.6-10.7-2-16.2
	c-0.1-1.2,1.2-2.4,1.9-3.6c1.1,1.1,2.6,2,3.2,3.3c1.3,2.7,1.8,5.8,3.1,8.4c3.3,6.2,6.9,12.3,10.3,18.4c0.6-0.3,1.1-0.6,1.7-0.9
	c-1.8-3.1-3.6-6.1-5.4-9.2c-0.9-1.6-2-3.2-2.3-4.9c-0.2-1.1,0.8-2.4,1.2-3.6c1.2,0.5,2.7,0.7,3.4,1.5c5.6,6.4,10.9,12.9,16.5,19.3
	c1.1,1.3,2.8,2.1,5,2.4c-2.9-4.5-5.7-9-8.6-13.5c2-3.4,4-2.8,6.3-0.5c3,3,6.2,5.8,9.3,8.7c0.4-0.3,0.7-0.5,1.1-0.8
	c-0.1-0.5-0.4-1.1-0.4-1.6c0-1.7,0.1-3.4,0.2-5c1.7,0.2,3.7-0.1,5,0.8c7,4.7,14.7,6.9,22.9,7.7c19.8,1.9,35.8-10.8,38.2-30.4
	C165.3,145.7,157.1,131.6,144.5,124.6z M74.1,118c15.9,1.2,27.3-10,24.4-23.7C88,99.6,80.9,108,74.1,118z"/>
</svg>
