<?xml version="1.0" encoding="utf-8"?>
<!-- Generator: Adobe Illustrator 22.1.0, SVG Export Plug-In . SVG Version: 6.00 Build 0)  -->
<svg version="1.1" id="Layer_1" xmlns="http://www.w3.org/2000/svg" xmlns:xlink="http://www.w3.org/1999/xlink" x="0px" y="0px"
	 viewBox="0 0 256 256" style="enable-background:new 0 0 256 256;" xml:space="preserve">
<path d="M145.1,145.1c3.8,13.2,7.3,25.7,10.9,38.1c4.1,14.4,8.2,28.8,12.6,43.1c1.4,4.5,0.3,7.7-3.6,9.6c-3.9,1.8-7.5,1.7-10.5-2.4
	c-21.9-29.6-43.9-59-65.9-88.5c-9.7-13.1-19.5-26.2-29.1-39.3c-4-5.5-4-9,0.3-12.7c1.3-1.1,3.5-1.7,5.3-1.8
	c8.2-0.2,16.3-0.1,24.5-0.1c8.3,0,9-0.7,6.6-8.4C91,66.3,85.9,50,80.9,33.6C77.7,23.1,80.8,19,91.9,19c20.5,0,41,0,61.5,0
	c7.5,0,10.7,2.4,13,9.6c8.4,26.8,16.7,53.7,25.1,80.5c2.4,7.8,5,15.5,7.5,23.3c2.4,7.2-1.1,12.4-8.8,12.7c-8.7,0.3-17.3,0.1-26,0.1
	C158,145.1,151.9,145.1,145.1,145.1z"/>
</svg>
