<?xml version="1.0" encoding="utf-8"?>
<!-- Generator: Adobe Illustrator 22.1.0, SVG Export Plug-In . SVG Version: 6.00 Build 0)  -->
<svg version="1.1" id="Layer_1" xmlns="http://www.w3.org/2000/svg" xmlns:xlink="http://www.w3.org/1999/xlink" x="0px" y="0px"
	 viewBox="0 0 256 256" style="enable-background:new 0 0 256 256;" xml:space="preserve">
<path d="M97.4,185c-8.6,2.4-16.9,4.7-25.3,6.9c-5.9,1.6-8.7-1.1-7-7.1c1.9-6.9,3.8-13.8,6.2-20.5c1.2-3.6,0.2-5.5-3-7.2
	c-15.1-8.1-30.1-16.4-45.1-24.6c-5.3-2.9-5.3-5.7,0-8.7c14.7-8.4,29.5-16.8,44.3-25.2c1.4-0.8,2.8-1.7,4.6-2.7
	c-2.4-8.4-4.7-16.6-7-24.9c-1.7-6.2,0.9-8.9,7.2-7.3c7.1,1.8,14.2,3.7,21.1,5.9c3.2,1,4.7,0.4,6.3-2.6c8-14.6,16.1-29.1,24.4-43.5
	c1-1.8,3.2-4,4.8-4.1c1.6,0,3.8,2.2,4.8,4c7.8,14.1,15.5,28.3,23,42.6c1.9,3.6,3.7,4.7,7.7,3.5c7.2-2.1,14.5-3.6,21.8-5.3
	c5.9-1.3,7.8,0.7,6.3,6.5c-2.3,8.3-4.6,16.6-7,25.2c1.4,0.8,2.6,1.6,3.9,2.4c14.5,8.1,29.1,16.2,43.5,24.5c1.9,1.1,3.9,3.5,4.1,5.4
	c0.1,1.5-2.2,3.9-3.9,4.9c-14.4,8.1-28.8,16-43.4,23.7c-3.1,1.6-3.9,3.2-2.9,6.6c2.1,6.8,3.8,13.8,5.7,20.7c1.7,6.5-0.9,9.3-7.5,7.6
	c-6.8-1.7-13.5-3.6-20.1-5.8c-3.4-1.1-5-0.4-6.6,2.7c-8,14.6-16.1,29.1-24.4,43.6c-1.1,1.9-3.3,4.6-4.6,4.4
	c-1.9-0.3-3.9-2.6-5.1-4.6c-8.1-14-15.9-28.1-23.8-42.2C99.4,188.3,98.4,186.7,97.4,185z M95,127.8c3.1,1.7,4.7,3,6.5,3.6
	c11.1,4.1,18.3,12,22.5,22.9c0.9,2.3,2.9,4.2,4.4,6.3c1.7-2.1,3.9-4,4.9-6.3c4.5-11,11.8-18.9,23.2-22.8c0.8-0.3,1.5-0.8,2.2-1.1
	c3.6-1.8,2.9-3.5-0.1-5.2c-1.5-0.8-2.9-1.7-4.4-2.3c-9.8-3.5-16.3-10.3-19.9-20c-0.7-1.9-1.9-3.5-2.7-5.3c-1.6-3.3-3.3-3.5-5.1-0.2
	c-2.5,4.5-4.7,9.2-7.7,13.4c-2.2,3.1-5.1,5.9-8.2,8.1C106,122.1,100.9,124.5,95,127.8z"/>
</svg>
