<?xml version="1.0" encoding="utf-8"?>
<!-- Generator: Adobe Illustrator 22.1.0, SVG Export Plug-In . SVG Version: 6.00 Build 0)  -->
<svg version="1.1" id="Layer_1" xmlns="http://www.w3.org/2000/svg" xmlns:xlink="http://www.w3.org/1999/xlink" x="0px" y="0px"
	 viewBox="0 0 256 256" style="enable-background:new 0 0 256 256;" xml:space="preserve">
<path d="M53.3,83.9c1.6,14.6,3,28.2,4.5,41.7c0.2,0,0.5,0,0.7,0c0-2.1,0-4.3,0-6.4c0-24.3-0.2-48.6,0-73c0.1-11,5.7-19,15.3-23.9
	c9.8-4.9,19.4-4.2,27.9,3c2.4,2.1,4.2,2.3,7,0.9c17-8.5,28.6-5.6,39.5,9.2c6.2-0.5,11.9-1.6,17.5-1.2c9.3,0.6,16.2,5.9,20.4,14.1
	c1.5,3,3.2,3.6,6.2,3c16.2-3.2,26.6,1.9,33.4,16.8c1,2.2,1.6,4.8,1.6,7.2c0.1,28,0.2,56-0.1,83.9c-0.1,12.8-5.3,24.3-11.6,35.2
	c-10.1,17.3-24.8,29.5-43.8,36c-38.2,12.8-73.7,6.9-105.7-17c-18.2-13.6-28.8-32.6-34.2-54.7c-3.7-14.9-4.9-29.4-0.3-44.2
	C35.4,102.2,42.3,92.3,53.3,83.9z"/>
</svg>
