<?xml version="1.0" encoding="utf-8"?>
<!-- Generator: Adobe Illustrator 22.1.0, SVG Export Plug-In . SVG Version: 6.00 Build 0)  -->
<svg version="1.1" id="Layer_1" xmlns="http://www.w3.org/2000/svg" xmlns:xlink="http://www.w3.org/1999/xlink" x="0px" y="0px"
	 viewBox="0 0 256 256" style="enable-background:new 0 0 256 256;" xml:space="preserve">
<path d="M179.8,214.6c-21.5,24.3-67.7,33.7-102.6,4.4c-30.7-25.8-38.8-74.7-19.4-103.3c1.3,6.2,2.6,11.9,3.9,18.1
	c1.5-1,1.9-1.2,2-1.4c5.4-15.6,16.2-26.7,28.6-37c8.9-7.4,17.2-15.8,24.9-24.5c12.8-14.5,15.9-31.1,7.9-49.2c-0.3-0.7-0.5-1.5,0.3-3
	c2.6,2.6,5.6,4.9,7.7,7.9c14.4,19.7,20.2,41.2,14.1,65.5c-1,4.1-0.3,9.4,1.4,13.4c3.2,7.6,14.3,7.8,18.8,0.9
	c4-6.3,3.7-14.2-0.9-20.6c-1.9-2.7-4.1-5.2-6.2-7.9c10.3-1.2,29,11.6,37.7,26.5c14.7,25.4,14.5,51.1-1.2,76.1
	c-9.8,15.6-23.9,24.7-42.6,26.7c6.7-5.7,12.4-12.1,14.3-20.8c1.9-8.5,2.9-17-2.6-26.3c-2.1,8.9-5.1,16.2-11.5,21.4
	c-6.2,4.9-13,8.4-21.6,6.9c8.5-3.4,15.7-8.4,16.3-18.1c0.3-4.6-1.5-10-4-14c-5.1-8.2-18.4-10-26.9-4.4c-9.3,6.1-10.8,17.2-3.9,29.5
	c-4.5-1.1-4.5-1.1-13.9-18.6c-0.7,1.5-1.5,2.5-1.7,3.6c-5.5,29.7,15.2,55.6,45.5,56.8c11.9,0.5,23.3-1.2,33.5-7.7
	C178.3,215.1,179.1,214.9,179.8,214.6z"/>
</svg>
