<?xml version="1.0" encoding="utf-8"?>
<!-- Generator: Adobe Illustrator 22.1.0, SVG Export Plug-In . SVG Version: 6.00 Build 0)  -->
<svg version="1.1" id="Layer_1" xmlns="http://www.w3.org/2000/svg" xmlns:xlink="http://www.w3.org/1999/xlink" x="0px" y="0px"
	 viewBox="0 0 256 256" style="enable-background:new 0 0 256 256;" xml:space="preserve">
<path d="M248.9,19.5c-0.3,8-2,14.9-5.6,21.5c-8.7,15.9-21.2,28-35.8,38.4c-22.1,15.7-46.7,26-72,35.2c-3.4,1.2-6.9,2.4-10.2,3.9
	c-1.5,0.7-2.7,1.9-3.6,3.7c35.6-5.5,71-10.9,102.4-32.2c-1.3,7.7-4.5,13.5-8.8,18.8c-9.2,11.2-20.4,20.3-33.5,26.4
	c-18.5,8.6-37.6,16-56.4,23.9c-1.9,0.8-3.9,1.6-5.7,3.1c8.4,2.7,16.4-0.9,24.4-2c8.5-1.2,17.1-2.9,25.3-5.5c8-2.5,15.7-6.3,24-9.8
	c-2.5,8.1-7,14.5-13.4,19.8c-15.5,12.7-33.7,20-52.1,26.9c-2.7,1-5.3,2.4-7.9,3.6c0.1,0.6,0.2,1.2,0.3,1.8c2.9,0,6,0.6,8.8-0.1
	c12.1-2.9,24.2-6.1,36.2-9.2c0.9-0.2,1.9-0.4,3.9-0.9c-1.1,2.8-1.8,5-2.8,6.9c-22.4,40.4-72.8,54.4-114.9,32
	C27.6,213.2,12.3,193.5,8.1,167c-4.4-27.2,5.6-49.9,26.3-68.1c14.2-12.5,31.1-18.1,49.3-21.3c42.2-7.4,83.7-17.7,123.6-33.4
	c14.4-5.7,28.4-12.5,39.6-23.7C247.2,20.2,247.7,20.1,248.9,19.5z"/>
</svg>
