<?xml version="1.0" encoding="utf-8"?>
<!-- Generator: Adobe Illustrator 22.1.0, SVG Export Plug-In . SVG Version: 6.00 Build 0)  -->
<svg version="1.1" id="Layer_1" xmlns="http://www.w3.org/2000/svg" xmlns:xlink="http://www.w3.org/1999/xlink" x="0px" y="0px"
	 viewBox="0 0 256 256" style="enable-background:new 0 0 256 256;" xml:space="preserve">
<path d="M155.7,236.1c-20.2-0.4-39.9-4.1-59.2-9.2c-39-10.2-69.3-47.7-74.3-85.8C14.2,80.9,55.4,28,115.8,20.7
	c51.8-6.3,106,27.9,117.2,86.5c6.1,32-3.1,60.2-22.6,85.5c-5.3,6.9-4.8,9.2,3,13.4c2,1.1,4.2,2,6.2,3.3c6.2,3.9,6.3,11.3-0.4,14.1
	c-11.6,5-23.2,10.3-36.1,11C173.9,235.1,164.8,235.6,155.7,236.1z M139.6,113.1c0.7,9.1,6,14.7,13.9,15.6c7.9,0.9,15.6-4.3,18-12
	c2.3-7.3-0.4-14.1-7.4-17.9C159.7,109.6,151.2,113.9,139.6,113.1z M86.9,99.5c-6.6,5.1-8.7,10.7-6.7,16.7
	c2.2,6.8,8.1,11.5,14.6,11.7c8.6,0.3,14.1-2.9,16.7-9.8c0.8-2.1,1.9-5.2-1.9-5C98.9,113.9,91.9,108.7,86.9,99.5z"/>
</svg>
