<?xml version="1.0" encoding="utf-8"?>
<!-- Generator: Adobe Illustrator 22.1.0, SVG Export Plug-In . SVG Version: 6.00 Build 0)  -->
<svg version="1.1" id="Layer_1" xmlns="http://www.w3.org/2000/svg" xmlns:xlink="http://www.w3.org/1999/xlink" x="0px" y="0px"
	 viewBox="0 0 256 256" style="enable-background:new 0 0 256 256;" xml:space="preserve">
<path d="M77.2,219.1c11.2-16.3,22-32.1,33-47.7c0.9-1.3,3-1.9,4.7-2.2c14-3.1,28-6.1,41.9-9.1c1.2-0.3,2.4-0.8,3.6-2.5
	c-12.4-1.3-24.8-2.7-38.1-4.1c5.5-8.2,10.4-15.5,15.4-22.7c0.7-1,2.5-1.5,3.9-1.8c9.1-2,18.2-3.9,27.3-5.9c1.4-0.3,2.8-0.7,4.3-2.1
	c-8.2-1.7-16.3-3.3-25.1-5.1c9.3-14,18.4-27.6,27.4-41.3c-0.5-0.4-1.1-0.9-1.6-1.3c-10.6,12.2-21.2,24.4-32.4,37.3
	c-3.7-7-7.1-13.4-10.5-19.8c-0.5,0.2-0.9,0.3-1.4,0.5c0,5-0.8,10.2,0.2,15.1c2.7,13.3-1.8,23.5-11.9,32c-2.1,1.8-3.8,4.2-6.1,6.8
	c-4.7-11.8-9.1-23.2-13.6-34.5c-0.4,0.1-0.7,0.1-1.1,0.2c0,6.8-0.2,13.6,0.1,20.4c0.4,8.8,1.2,17.6,1.7,26.4
	c0.1,1.5-0.5,3.4-1.5,4.5c-11.9,14.4-23.9,28.7-35.9,43c-0.2,0.2-0.6,0.3-1.3,0.7c-1.8-1.4-3.9-2.7-5.6-4.4
	c-16-16.2-25.9-35.5-27.7-58.3c-4.1-50.1,26.7-81.7,56.9-96.2c24.8-12,50.8-19.8,78.2-22.8c14.5-1.6,29.1-2.9,43.7-3.9
	c9.6-0.6,10.8,0.9,13.4,10.1c7.5,27.5,11.3,55.5,10.6,83.9c-0.7,26.9-4.7,53.2-18.6,76.8c-17.5,29.6-44.5,43.2-78.3,44.9
	c-17.1,0.8-33-3.1-47.9-11.6C82.4,222.9,80.1,221.2,77.2,219.1z"/>
</svg>
