<?xml version="1.0" encoding="utf-8"?>
<!-- Generator: Adobe Illustrator 22.1.0, SVG Export Plug-In . SVG Version: 6.00 Build 0)  -->
<svg version="1.1" id="Layer_1" xmlns="http://www.w3.org/2000/svg" xmlns:xlink="http://www.w3.org/1999/xlink" x="0px" y="0px"
	 viewBox="0 0 256 256" style="enable-background:new 0 0 256 256;" xml:space="preserve">
<g>
	<path d="M63.9,208.2c4.6-12.6,9-24.8,13.4-37c14.1-38.8,28.1-77.5,42.2-116.3c2.7-7.4,2.7-7.4,10.7-7.4c15.3,0,30.6,0.1,46,0
		c4.9,0,7.8,1.5,9.6,6.5c17.8,49.6,35.8,99.2,53.8,148.7c0.6,1.7,1.1,3.4,1.8,5.5C182.2,208.2,123.5,208.2,63.9,208.2z"/>
	<path d="M92.6,97.5c-4.6,12.6-8.9,24.1-13.1,35.6c-8.7,23.6-17.5,47.1-26.1,70.7c-1.3,3.4-2.8,4.9-6.7,4.8
		c-10.5-0.3-20.9-0.1-32-0.1c3.5-9.6,6.8-18.6,10.2-27.6c9.8-26.3,19.7-52.6,29.3-79c1.2-3.4,2.9-4.5,6.4-4.4
		C70.9,97.6,81.2,97.5,92.6,97.5z"/>
</g>
</svg>
