<?xml version="1.0" encoding="utf-8"?>
<!-- Generator: Adobe Illustrator 22.1.0, SVG Export Plug-In . SVG Version: 6.00 Build 0)  -->
<svg version="1.1" id="Layer_1" xmlns="http://www.w3.org/2000/svg" xmlns:xlink="http://www.w3.org/1999/xlink" x="0px" y="0px"
	 viewBox="0 0 256 256" style="enable-background:new 0 0 256 256;" xml:space="preserve">
<g>
	<path d="M123.8,117c-19.3-9.6-37.6-18.7-55.8-28c-1.1-0.5-2.2-2.2-2.2-3.4c-0.1-21-0.1-41.9,0-62.9c0-0.3,0.3-0.5,0.7-1.2
		c1.9,0.8,3.9,1.4,5.7,2.4c15.8,8.6,31.5,17.2,47.3,25.7c3.3,1.8,4.6,4,4.5,7.9c-0.3,17.6-0.1,35.3-0.2,52.9
		C123.8,112.3,123.8,114.1,123.8,117z"/>
	<path d="M123.8,139.5c0,13.6,0,26.2,0,38.9c0,7,0.1,14-0.1,21c-0.1,1.7-0.9,4.2-2.2,4.9c-17.6,10-35.4,19.8-53.2,29.7
		c-0.2,0.1-0.6,0-1.5,0c-0.2-1.3-0.6-2.7-0.6-4.1c-0.3-18.5-0.5-36.9-1-55.4c-0.1-4.5,1.4-7.3,5.6-9.3c15.7-7.6,31.3-15.5,46.9-23.2
		C119.4,141.1,121.2,140.5,123.8,139.5z"/>
	<path d="M132.3,116c-0.2-2.4-0.4-4.3-0.4-6.3c-0.1-17.7-0.2-35.3,0-53c0-2.1,1.2-5.1,2.8-6c17.3-10,34.8-19.6,52.2-29.3
		c0.6-0.3,1.2-0.5,2.2-0.9c0.3,2,0.8,3.8,0.8,5.5c0.1,19.3,0.3,38.6,0.2,57.9c0,1.7-1.3,4.3-2.8,5c-17,8.8-34.1,17.2-51.3,25.8
		C135.2,115.4,134,115.5,132.3,116z"/>
	<path d="M190.2,235.3c-4.5-2.5-8.1-4.5-11.7-6.5c-14.3-7.9-28.5-15.8-42.7-23.8c-1.5-0.8-3.3-2.7-3.3-4.2
		c-0.2-20.5-0.1-40.9-0.1-61.9c1.5,0.6,2.8,0.9,3.9,1.5c16.8,8.4,33.6,16.8,50.4,25.3c1.6,0.8,3.5,3,3.5,4.5
		C190.2,191.6,190.2,212.9,190.2,235.3z"/>
	<path d="M124.1,127.4c-2,1.3-3.3,2.3-4.7,3.1c-16.5,9.3-33.1,18.5-49.6,27.8c-2.7,1.6-4.8,1.8-7.7,0.1
		C46,149.1,29.7,140.2,13.5,131c-1.8-1-3.5-2.4-5.9-4c3-1.6,5.3-2.9,7.6-4.1c15.6-8.1,31.3-16.2,47-24.1c1.8-0.9,4.7-1.3,6.3-0.4
		c17.8,8.9,35.5,18.1,53.3,27.2C122.4,125.9,122.8,126.4,124.1,127.4z"/>
	<path d="M248.4,127c-2.6,1.7-4.4,3.1-6.4,4.2c-16.1,9-32.1,18.1-48.3,26.9c-1.6,0.9-4.4,1.2-5.8,0.4c-16.9-9.2-33.7-18.7-50.5-28.1
		c-1.6-0.9-2.9-2.1-4.9-3.6c1.7-1,2.8-1.8,4.1-2.4c16.5-8.5,33.1-17.1,49.7-25.5c1.8-0.9,4.7-1.4,6.3-0.6
		C210.9,107.5,229.1,117,248.4,127z"/>
</g>
</svg>
