<?xml version="1.0" encoding="utf-8"?>
<!-- Generator: Adobe Illustrator 22.1.0, SVG Export Plug-In . SVG Version: 6.00 Build 0)  -->
<svg version="1.1" id="Layer_1" xmlns="http://www.w3.org/2000/svg" xmlns:xlink="http://www.w3.org/1999/xlink" x="0px" y="0px"
	 viewBox="0 0 256 256" style="enable-background:new 0 0 256 256;" xml:space="preserve">
<path d="M104,224.6c-1.7,1.5-3.2,2.7-4.7,4c-12.3,10.3-29.9,9.3-40.4-2.9c-8.1-9.4-12.5-20.7-10.4-33.2c1-6-0.7-9.6-4.8-13.4
	c-13.4-12.3-22.3-27.5-26.4-45c-6.7-28.5,1.7-53.5,20.3-75c18.7-21.7,42.9-33.3,71.2-37.4c24.8-3.6,48.5-0.5,71.2,9.4
	c25.9,11.3,45.4,29.6,55.7,56.3c12.3,32,2.3,69.7-24.1,93.2c-3.5,3.1-4.6,6.2-3.8,10.4c2,10.4-0.9,19.7-5.9,28.7
	c-7.4,13.5-28.4,23.8-45,8.6c-3.6-3.3-6.1-3.3-9.9,0c-10.5,9.4-23.6,9.9-35.4,2C109.2,228.7,106.9,226.8,104,224.6z M132.3,68.5
	c-26.3-0.1-45.8,8.1-58.7,23.1c-12.5,14.5-12.8,32.5-0.9,47.5c7.8,9.8,17.9,16.4,29.8,19.9c28.1,8.3,54.3,4.8,76.5-15.2
	c17.6-15.9,17.3-40.2,0-56.4C165.1,74.2,148,68.7,132.3,68.5z"/>
</svg>
