<?xml version="1.0" encoding="utf-8"?>
<!-- Generator: Adobe Illustrator 22.1.0, SVG Export Plug-In . SVG Version: 6.00 Build 0)  -->
<svg version="1.1" id="Layer_1" xmlns="http://www.w3.org/2000/svg" xmlns:xlink="http://www.w3.org/1999/xlink" x="0px" y="0px"
	 viewBox="0 0 256 256" style="enable-background:new 0 0 256 256;" xml:space="preserve">
<path d="M218.6,194.7c5,5.3,5,7.8-0.1,12.1c-28.4,23.7-61.4,30.6-97.3,25.9c-24.2-3.2-45.4-13-63-29.9c-22.8-22.1-32-49.5-30.2-81
	c1.5-27.1,10.8-51,30.5-69.6c31-29.2,67.8-36.9,108.3-24.3c32.5,10.2,52.9,32.8,59.4,65.9c10.1,51.6-19,87.5-58.1,96.6
	c-48.5,11.4-83-25.7-79-66.8c2.4-24.6,24.8-45.8,48.3-44.2c18.8,1.2,37.6,11.4,41.1,34.6c1.8,12-3.1,21.1-12.1,28.4
	c-10.7,8.6-24.5,9.3-34.8,2.2c-7.7-5.3-12-16.3-9.4-24.5c1.1-3.4,2.5-6.9,6.9-6.6c4.7,0.3,6.2,3.7,6.4,8c0.3,7.3,3.3,10.8,8.7,10.7
	c6.2,0,11.8-5.8,11.9-12.2c0.2-9.3-6.3-16.2-15.5-16.8c-10.7-0.6-19,4.4-22.6,13.7c-4.2,10.7-1.1,24.2,7.3,31.1
	c11,9.1,23.5,10.8,36.6,5.6c13.8-5.6,22-15.7,24.4-30.9c4.4-27.3-17-55.7-50.2-56.8c-30.3-1-62.5,19.4-67.3,59
	c-4.1,34,16.9,77.6,66.4,87.4c28.1,5.6,53.9,0,78.1-14.6c1.4-0.9,2.9-1.7,4.3-2.5C217.7,194.9,218.1,194.9,218.6,194.7z"/>
</svg>
