<?xml version="1.0" encoding="utf-8"?>
<!-- Generator: Adobe Illustrator 22.1.0, SVG Export Plug-In . SVG Version: 6.00 Build 0)  -->
<svg version="1.1" id="Layer_1" xmlns="http://www.w3.org/2000/svg" xmlns:xlink="http://www.w3.org/1999/xlink" x="0px" y="0px"
	 viewBox="0 0 256 256" style="enable-background:new 0 0 256 256;" xml:space="preserve">
<g>
	<path d="M137.8,42c14.8,0,29.6,0.1,44.5-0.1c4.2-0.1,5.8,1,5,5.3c-4.1,22.9-8,45.9-12.2,68.8c-0.4,2.4-2.3,5.2-4.4,6.6
		c-33.8,22.5-67.8,44.7-101.6,67.2c-3.4,2.3-6.6,2.7-10.3,1.6c-12.9-4-25.8-7.9-38.6-12c-3.2-1-5.1-2.8-5-6.9
		c0.3-13.3,0-26.6,0.2-40c0-2.2,1-4.9,2.5-6.6c22.7-27,45.5-54,68.5-80.8c1.5-1.7,4.4-3,6.6-3.1C107.8,41.8,122.8,42,137.8,42
		C137.8,42,137.8,42,137.8,42z"/>
	<path d="M203.7,170.1c-6.6,4.6-12.9,8.9-19.1,13.3c-14.1,9.7-28.2,19.5-42.4,29.2c-1.5,1-3.8,1.9-5.3,1.4
		c-15.1-4.1-30.1-8.4-45.1-12.8c-2-0.6-3.9-1.7-6.6-3c1.6-1.2,2.6-2.2,3.7-2.9c28.5-18.8,57.1-37.4,85.4-56.3c4.1-2.7,6.4-2,8.9,1.7
		C189.9,150.4,196.7,160.1,203.7,170.1z"/>
	<path d="M217,161c-6.1-8.3-11.7-15.9-17.3-23.6c-10.5-14.4-10.4-14.4-7.1-32.2c3.9-20.9,7.7-41.8,11.6-62.8c3.8-1.6,5.6,0,6.7,3.5
		c7,22,14,44,21,66c2.7,8.4,5.4,16.8,8.3,25.1c1.1,3.2,0.6,5.3-2,7.3C231.5,149.7,224.7,155,217,161z"/>
</g>
</svg>
