<?xml version="1.0" encoding="utf-8"?>
<!-- Generator: Adobe Illustrator 22.1.0, SVG Export Plug-In . SVG Version: 6.00 Build 0)  -->
<svg version="1.1" id="Layer_1" xmlns="http://www.w3.org/2000/svg" xmlns:xlink="http://www.w3.org/1999/xlink" x="0px" y="0px"
	 viewBox="0 0 256 256" style="enable-background:new 0 0 256 256;" xml:space="preserve">
<path d="M127.4,234.9c-18.7,0-37.3-0.1-56,0.1c-3.8,0-6.3-1.1-8.2-4.4c-19.1-33.2-38.3-66.3-57.3-99.5c-0.8-1.4-0.5-4.2,0.4-5.7
	C18.1,104.5,30.1,83.8,42.1,63C49,51.2,55.9,39.5,62.8,27.7c2.6-4.5,6.1-6.8,11.7-6.7c34.8,0.2,69.7,0.2,104.5,0
	c7.3,0,11.9,2,15.8,8.9c17.7,31.7,36.1,63,54.4,94.3c1.7,2.9,1.9,5,0.1,8.1c-18.4,31.6-36.8,63.3-54.9,95.1
	c-3.2,5.6-6.8,7.9-13.4,7.7C163.1,234.6,145.3,234.9,127.4,234.9C127.4,234.9,127.4,234.9,127.4,234.9z M128.2,81.8
	c-25.2-2.9-48.5,22-47.2,48c1.2,23.8,20.9,43.4,44.4,44.9c26.4,1.7,50.2-21.3,49.8-46.2C174.7,96.9,149.9,79.6,128.2,81.8z"/>
</svg>
