<?xml version="1.0" encoding="utf-8"?>
<!-- Generator: Adobe Illustrator 22.1.0, SVG Export Plug-In . SVG Version: 6.00 Build 0)  -->
<svg version="1.1" id="Layer_1" xmlns="http://www.w3.org/2000/svg" xmlns:xlink="http://www.w3.org/1999/xlink" x="0px" y="0px"
	 viewBox="0 0 256 256" style="enable-background:new 0 0 256 256;" xml:space="preserve">
<path d="M128.1,237.5c-38,0-70.6-29.4-75.3-66.8c-2-16.4,2.3-31.3,8.9-45.4c9.2-19.4,19.8-38.1,30.6-56.6
	c8.4-14.4,17.9-28.1,26.9-42.1c1.2-1.8,2.4-3.6,3.9-5.1c3.9-4,7.9-4,10.9,0.6c20.9,32.3,43.6,63.5,59.1,98.9c3.5,8,6.6,16.4,8.6,25
	C212.5,192.5,176.2,237.5,128.1,237.5z M92.3,156.3c-8.8,10.5-7.5,27.4,2.1,38.4c12.4,14.1,35.6,17.5,51.5,7.5
	c11.7-7.3,18.4-19.1,15-27c-10.7,13.2-23.9,19.5-40.9,15.2C102.8,186.1,94.6,174,92.3,156.3z"/>
</svg>
