<?xml version="1.0" encoding="utf-8"?>
<!-- Generator: Adobe Illustrator 22.0.1, SVG Export Plug-In . SVG Version: 6.00 Build 0)  -->
<svg version="1.1" id="Layer_1" xmlns="http://www.w3.org/2000/svg" xmlns:xlink="http://www.w3.org/1999/xlink" x="0px" y="0px"
	 viewBox="0 0 209 37" style="enable-background:new 0 0 209 37;" xml:space="preserve">
<style type="text/css">
	.st0{enable-background:new    ;}
	.st1{fill:#212121;}
	.st2{fill:#FF5722;}
</style>
<g>
	<g class="st0">
		<path class="st1" d="M19.5,6.7l-4,12.1h-2.6l-3-10.1l-3,10.1H4.3l-4-12.1h2.2l3.1,10.2l3-10.2h2.5l3,10.2l3.1-10.2H19.5z"/>
		<path class="st1" d="M36.8,12.8c0,2-0.8,3.6-2.4,4.8c-1.4,1.1-3.2,1.6-5.3,1.6c-2.1,0-3.9-0.5-5.4-1.6c-1.6-1.2-2.4-2.8-2.4-4.8
			c0-1.9,0.8-3.5,2.5-4.8c1.5-1.1,3.2-1.6,5.3-1.6c2.1,0,3.9,0.5,5.3,1.6C36,9.2,36.8,10.8,36.8,12.8z M34.7,12.8
			c0-1.4-0.6-2.6-1.8-3.5c-1-0.8-2.3-1.1-3.9-1.1c-1.7,0-3.1,0.4-4.1,1.3s-1.6,2-1.6,3.3c0,1.4,0.5,2.5,1.6,3.3
			c1,0.8,2.4,1.3,4.2,1.3c1.7,0,3.1-0.4,4.1-1.3C34.2,15.3,34.7,14.2,34.7,12.8z"/>
		<path class="st1" d="M54,18.9h-2.3l-3.3-4.6h-6.1v4.6h-2V6.7h9.6c1.3,0,2.3,0.3,3,1c0.7,0.7,1.1,1.6,1.1,2.8c0,1-0.3,1.9-0.9,2.5
			c-0.5,0.6-1.3,1-2.3,1.1L54,18.9z M49.5,12.4c1.6,0,2.3-0.6,2.3-1.9c0-1.3-0.8-2-2.5-2h-7.1v3.9H49.5z"/>
		<path class="st1" d="M71.3,18.9h-2.6l-5.8-6.4l-3.7,2.7v3.7h-2V6.7h2V13l8.5-6.3h2.9l-6.2,4.6L71.3,18.9z"/>
		<path class="st1" d="M75.3,18.9h-2V6.7h2V18.9z"/>
		<path class="st1" d="M93,18.9h-2.5l-9.3-10v10h-2V6.7h2.5l9.3,10v-10h2V18.9z"/>
		<path class="st1" d="M111.9,12.6c0,2-0.7,3.6-2.1,4.8c-1.4,1.2-3.3,1.8-5.6,1.8c-2.1,0-3.9-0.5-5.3-1.6c-1.6-1.2-2.4-2.8-2.4-4.8
			c0-1.9,0.8-3.5,2.5-4.8c1.4-1.1,3.3-1.6,5.5-1.6c2.7,0,4.9,1,6.6,2.9l-1.9,0.9c-1.3-1.4-2.9-2-4.9-2c-1.5,0-2.8,0.4-3.9,1.1
			c-1.2,0.9-1.8,2-1.8,3.5c0,1.4,0.5,2.5,1.6,3.3c1,0.9,2.4,1.3,4.1,1.3c2.7,0,4.4-1,5.2-3.1h-5.7v-1.8h8.2V12.6z"/>
	</g>
	<g class="st0">
		<path class="st1" d="M162.1,8.7c-1.5-0.8-3.1-1.2-5-1.2c-1.5,0-2.7,0.2-3.5,0.6c-0.8,0.4-1.2,1-1.2,1.7c0,0.7,0.4,1.3,1.2,1.6
			c0.7,0.3,1.8,0.5,3.5,0.5c1.4,0.1,2.3,0.1,2.8,0.2c0.9,0.1,1.6,0.3,2.1,0.5c1.2,0.5,1.8,1.4,1.8,2.7c0,1.2-0.5,2.2-1.6,2.9
			s-2.6,1-4.6,1c-2.7,0-5-0.6-6.7-1.8l0.6-0.9c1.8,1.1,3.7,1.7,5.8,1.7c1.7,0,3-0.2,3.9-0.7c0.9-0.5,1.3-1.2,1.3-2.1
			c0-0.8-0.4-1.4-1.2-1.8c-0.7-0.3-2-0.5-3.7-0.6c-1.3-0.1-2.2-0.1-2.7-0.2c-0.8-0.1-1.5-0.2-2-0.4c-1.2-0.4-1.8-1.3-1.8-2.4
			c0-1.1,0.5-2,1.5-2.6s2.5-0.9,4.3-0.9c2.5,0,4.5,0.5,5.9,1.4L162.1,8.7z"/>
		<path class="st1" d="M176.4,6.7c1.1,0,2,0.3,2.7,1c0.7,0.6,1,1.5,1,2.6c0,1.1-0.4,1.9-1.1,2.6s-1.7,1-2.9,1h-7.8v5h-1.1V6.7H176.4
			z M176.3,12.9c0.8,0,1.4-0.2,1.9-0.7c0.4-0.4,0.7-1.1,0.7-1.9c0-1.7-1-2.5-2.9-2.5h-7.6v5.1H176.3z"/>
		<path class="st1" d="M194.4,18.9h-11.8V6.7h11.3v1h-10.2v4.1h7.1v1h-7.1v4.9h10.7V18.9z"/>
		<path class="st1" d="M208.7,9.1l-1,0.4c-1.3-1.4-3.1-2-5.3-2c-1.7,0-3,0.4-4.2,1.3c-1.3,1-2,2.4-2,4.1c0,1.6,0.6,2.9,1.7,3.9
			c1.1,1,2.6,1.5,4.4,1.5c2.4,0,4.2-0.7,5.3-2l0.9,0.6c-1.2,1.6-3.3,2.5-6.1,2.5c-1.6,0-2.9-0.3-4.2-1c-1.1-0.6-1.9-1.3-2.4-2.3
			c-0.6-0.9-0.9-2-0.9-3.2c0-1.9,0.7-3.5,2.2-4.8c1.4-1.1,3-1.7,5-1.7C205.2,6.4,207.3,7.3,208.7,9.1z"/>
	</g>
	<g id="_1765242786352">
		<polygon class="st2" points="132.3,24.7 119.7,18.5 119.7,15.5 132.3,16.8 		"/>
		<polygon class="st2" points="132.3,24.7 145.5,18.8 145.4,15.4 132.3,16.8 		"/>
		<path class="st1" d="M119.5,16.5c0-0.2,0.2-0.3,0.4-0.3c0.2,0,0.4,0.1,0.4,0.3v1.8l11.4,5.4l0.3-5.6c0-0.1,0.3-0.3,0.4-0.3
			c0.2,0,0.4,0.2,0.4,0.3l0.4,5.6l12.1-5.3l0-2.1c0-0.2,0.2-0.3,0.4-0.3c0.2,0,0.4,0.1,0.4,0.3v2.5c0,0.1-0.1,0.2-0.2,0.2l-13.3,6.4
			c-0.1,0-0.2,0-0.2,0l-12.5-6.8c-0.1,0-0.2-0.1-0.2-0.3L119.5,16.5L119.5,16.5z M135.7,0.6c0.1,0,0.2,0.2,0.2,0.4
			c0,0.1-0.2,0.3-0.3,0.3L134.4,1c-0.1,0-0.2-0.3-0.2-0.4c0-0.1,0.2-0.3,0.3-0.3L135.7,0.6z M133.8,0.2c0.1,0,0.2,0.3,0.2,0.4
			c0,0.1-0.2,0.3-0.3,0.3l-0.7-0.1l-0.8,0.1c-0.1,0-0.3-0.2-0.3-0.3c0-0.1,0.1-0.4,0.2-0.4l1-0.1c0,0,0,0,0.1,0c0,0,0,0,0,0
			L133.8,0.2L133.8,0.2z M137.7,1c0.1,0,0.2,0.2,0.2,0.4c0,0.1-0.2,0.3-0.3,0.3l-1.1-0.2c-0.1,0-0.2-0.3-0.2-0.4
			c0-0.1,0.2-0.3,0.3-0.3L137.7,1L137.7,1z M139.7,1.4c0.1,0,0.2,0.3,0.2,0.4c0,0.1-0.2,0.3-0.3,0.3l-1.1-0.2
			c-0.1,0-0.2-0.3-0.2-0.4c0-0.1,0.2-0.3,0.3-0.3L139.7,1.4z M141.7,1.7c0.1,0,0.2,0.3,0.2,0.4c0,0.1-0.2,0.3-0.3,0.3l-1.1-0.2
			c-0.1,0-0.2-0.3-0.2-0.4s0.2-0.3,0.3-0.3L141.7,1.7L141.7,1.7z M143.7,2.2c0.1,0,0.2,0.2,0.2,0.4c0,0.1-0.2,0.3-0.3,0.3l-1.1-0.2
			c-0.1,0-0.2-0.3-0.2-0.4c0-0.1,0.2-0.3,0.3-0.3L143.7,2.2L143.7,2.2z M145.6,2.5c0.1,0,0.1,0.1,0.2,0.2c0,0,0,0.1,0,0.1v0.4
			c0,0.2-0.2,0.3-0.4,0.3c-0.1,0-0.3-0.1-0.3-0.2l-0.4,0.1c-0.1,0-0.3-0.2-0.3-0.3c0,0,0,0,0-0.1l0,0c-0.1,0-0.2-0.3-0.2-0.4
			c0-0.1,0.2-0.3,0.4-0.3L145.6,2.5L145.6,2.5z M130,0.5c-0.1,0-0.2,0.2-0.2,0.4c0,0.1,0.2,0.3,0.3,0.3l1.1-0.2
			c0.1,0,0.2-0.2,0.2-0.4c0-0.1-0.2-0.3-0.3-0.3L130,0.5L130,0.5z M121.2,2.7c0-0.1,0-0.1,0-0.2c0-0.1-0.2-0.3-0.3-0.3l-1,0.2h0
			c-0.2,0-0.4,0.1-0.4,0.3v0.4c0,0.2,0.2,0.3,0.4,0.3c0.1,0,0.2-0.1,0.3-0.2l1.2,0.2c0.1,0,0.3-0.1,0.3-0.3c0-0.1-0.1-0.4-0.2-0.4
			L121.2,2.7L121.2,2.7z M121.7,2c-0.1,0-0.2,0.2-0.2,0.4c0,0.1,0.2,0.3,0.3,0.3l1.3-0.2c0.1,0,0.2-0.2,0.2-0.4
			c0-0.1-0.2-0.3-0.3-0.3L121.7,2L121.7,2z M123.8,1.6c-0.1,0-0.2,0.3-0.2,0.4c0,0.1,0.2,0.3,0.3,0.3l1.1-0.2c0.1,0,0.2-0.2,0.2-0.4
			c0-0.1-0.2-0.3-0.3-0.3L123.8,1.6L123.8,1.6z M126,1.3c-0.1,0-0.2,0.3-0.2,0.4s0.2,0.3,0.3,0.3l1.1-0.2c0.1,0,0.2-0.2,0.2-0.4
			c0-0.1-0.2-0.3-0.3-0.3L126,1.3z M128,0.9c-0.1,0-0.2,0.2-0.2,0.4c0,0.1,0.2,0.3,0.3,0.3l1.1-0.2c0.1,0,0.2-0.2,0.2-0.4
			c0-0.1-0.2-0.3-0.3-0.3C129.1,0.7,128,0.9,128,0.9z M142.6,3.1c-0.1,0-0.2,0.2-0.2,0.4c0,0.1,0.2,0.3,0.3,0.3l1.1-0.2
			c0.1,0,0.2-0.2,0.2-0.4c0-0.1-0.2-0.3-0.3-0.3C143.8,2.8,142.6,3.1,142.6,3.1z M132.6,5.6l1-0.2c0.1,0,0.2-0.2,0.2-0.4
			c0-0.1-0.2-0.3-0.3-0.3l-1.1,0.2L131,4.7c-0.1,0-0.3,0.1-0.4,0.3c0,0.1,0.1,0.4,0.2,0.4l1.1,0.2v1c0,0.2,0.2,0.3,0.4,0.3
			c0.2,0,0.4-0.1,0.4-0.3L132.6,5.6L132.6,5.6z M134.3,4.6c-0.1,0-0.2,0.2-0.2,0.4c0,0.1,0.2,0.3,0.3,0.3l1.3-0.2
			c0.1,0,0.2-0.2,0.2-0.4c0-0.1-0.2-0.3-0.3-0.3L134.3,4.6L134.3,4.6z M136.5,4.2c-0.1,0-0.2,0.3-0.2,0.4c0,0.1,0.2,0.3,0.3,0.3
			l1.1-0.2c0.1,0,0.2-0.2,0.2-0.4c0-0.1-0.2-0.3-0.3-0.3L136.5,4.2L136.5,4.2z M138.6,3.8c-0.1,0-0.2,0.3-0.2,0.4
			c0,0.1,0.2,0.3,0.3,0.3l1.1-0.2c0.1,0,0.2-0.2,0.2-0.4c0-0.1-0.2-0.3-0.3-0.3L138.6,3.8L138.6,3.8z M140.6,3.4
			c-0.1,0-0.2,0.2-0.2,0.4c0,0.1,0.2,0.3,0.3,0.3l1.1-0.2c0.1,0,0.2-0.2,0.2-0.4c0-0.1-0.2-0.3-0.3-0.3L140.6,3.4L140.6,3.4z
			 M130,4.5c0.1,0,0.2,0.2,0.2,0.4c0,0.1-0.2,0.3-0.3,0.3l-1.1-0.2c-0.1,0-0.2-0.3-0.2-0.4s0.2-0.3,0.3-0.3L130,4.5L130,4.5z
			 M127.9,4c0.1,0,0.2,0.3,0.2,0.4s-0.2,0.3-0.3,0.3l-1.1-0.2c-0.1,0-0.2-0.3-0.2-0.4c0-0.1,0.2-0.3,0.3-0.3L127.9,4z M125.7,3.6
			c0.1,0,0.2,0.3,0.2,0.4c0,0.1-0.2,0.3-0.3,0.3l-1.1-0.2c-0.1,0-0.2-0.3-0.2-0.4c0-0.1,0.2-0.3,0.3-0.3L125.7,3.6L125.7,3.6z
			 M123.6,3.2c0.1,0,0.2,0.2,0.2,0.4c0,0.1-0.2,0.3-0.3,0.3l-1.1-0.2c-0.1,0-0.2-0.3-0.2-0.4c0-0.1,0.2-0.3,0.3-0.3L123.6,3.2
			L123.6,3.2z M145.8,14.2c0,0.1-0.2,0.2-0.3,0.2c-0.2,0-0.4-0.1-0.4-0.2v-1.6c0-0.1,0.2-0.2,0.4-0.2s0.3,0.1,0.3,0.2V14.2z
			 M145.9,5.2c0,0.2-0.2,0.3-0.4,0.3c-0.2,0-0.4-0.1-0.4-0.3V4c0-0.2,0.2-0.3,0.4-0.3s0.4,0.1,0.4,0.3V5.2L145.9,5.2z M145.9,7.3
			c0,0.2-0.2,0.3-0.4,0.3c-0.2,0-0.4-0.1-0.4-0.3V6.1c0-0.2,0.2-0.3,0.4-0.3s0.4,0.1,0.4,0.3V7.3L145.9,7.3z M145.8,9.3
			c0,0.2-0.2,0.3-0.3,0.3c-0.2,0-0.4-0.1-0.4-0.3V8.2c0-0.2,0.2-0.3,0.4-0.3s0.3,0.1,0.3,0.3V9.3z M145.9,11.5
			c0,0.2-0.2,0.3-0.4,0.3c-0.2,0-0.4-0.1-0.4-0.3v-1.2c0-0.2,0.2-0.3,0.4-0.3s0.4,0.1,0.4,0.3V11.5z M132.6,15.6
			c0,0.1-0.2,0.2-0.3,0.2c-0.2,0-0.4-0.1-0.4-0.2V14c0-0.1,0.2-0.2,0.4-0.2c0.2,0,0.3,0.1,0.3,0.2V15.6z M132.7,8.7
			c0,0.2-0.2,0.3-0.4,0.3c-0.2,0-0.4-0.1-0.4-0.3V7.5c0-0.2,0.2-0.3,0.4-0.3c0.2,0,0.4,0.1,0.4,0.3V8.7z M132.6,10.8
			c0,0.2-0.2,0.3-0.3,0.3c-0.2,0-0.4-0.1-0.4-0.3V9.6c0-0.2,0.2-0.3,0.4-0.3c0.2,0,0.3,0.1,0.3,0.3V10.8z M132.6,13
			c0,0.2-0.2,0.3-0.4,0.3c-0.2,0-0.4-0.1-0.4-0.3v-1.2c0-0.2,0.2-0.3,0.4-0.3c0.2,0,0.4,0.1,0.4,0.3V13z M120.2,14.3
			c0,0.1-0.2,0.2-0.3,0.2c-0.2,0-0.4-0.1-0.4-0.2v-1.9c0-0.1,0.2-0.2,0.4-0.2c0.2,0,0.3,0.1,0.3,0.2V14.3z M146.2,9.5
			c-0.1,0-0.2-0.1-0.2-0.2c0-0.1,0.1-0.1,0.3-0.1c1.3,0.5,3.9,1.4,3.9,3c0,4.3-15,5.4-17.9,5.4c-2.9,0-17.9-1.1-17.9-5.4
			c0-1.7,3.1-2.8,4.5-3.2c0.1,0,0.3-0.1,0.3,0.1c0,0.1-0.1,0.2-0.2,0.2c-1.1,0.4-3.9,1.5-3.9,2.9c0,3.3,14.9,3.8,17.2,3.8
			c2.3,0,17.2-0.5,17.2-3.8C149.5,10.8,147.3,9.8,146.2,9.5z M120.2,5c0,0.2-0.2,0.3-0.4,0.3c-0.2,0-0.4-0.1-0.4-0.3V3.8
			c0-0.2,0.2-0.3,0.4-0.3c0.2,0,0.4,0.1,0.4,0.3V5z M120.2,7.1c0,0.2-0.2,0.3-0.4,0.3c-0.2,0-0.4-0.1-0.4-0.3V5.9
			c0-0.2,0.2-0.3,0.4-0.3c0.2,0,0.4,0.1,0.4,0.3V7.1L120.2,7.1z M120.2,9.2c0,0.2-0.2,0.3-0.3,0.3c-0.2,0-0.4-0.1-0.4-0.3V8
			c0-0.2,0.2-0.3,0.4-0.3c0.2,0,0.3,0.1,0.3,0.3V9.2z M120.2,11.4c0,0.2-0.2,0.3-0.4,0.3c-0.2,0-0.4-0.1-0.4-0.3v-1.2
			c0-0.2,0.2-0.3,0.4-0.3c0.2,0,0.4,0.1,0.4,0.3V11.4z"/>
	</g>
	<g class="st0">
		<path class="st2" d="M44.9,32.9c0,0.2,0,0.4-0.1,0.7l-0.3,1.8c-0.1,0.4-0.1,0.8-0.2,1.4h-0.6l0.1-0.9l-0.3,0.5
			C43.1,36.8,42.6,37,42,37c-0.7,0-1.4-0.4-1.4-1.3c0-1.5,1.6-2,3.6-1.8l0-0.2c0.1-0.4,0.1-0.5,0.1-0.7c0-0.5-0.3-0.8-0.9-0.8
			c-0.8,0-1.3,0.4-1.5,1.2h-0.6c0.2-1,1-1.6,2.2-1.6C44.4,31.7,44.9,32.2,44.9,32.9z M44,34.9l0.1-0.6c-1.6-0.2-2.8,0.3-2.8,1.3
			c0,0.6,0.4,0.9,1,0.9C43,36.5,43.8,35.8,44,34.9z"/>
	</g>
	<g class="st0">
		<path class="st2" d="M57.7,33c0,0.3,0,0.5-0.1,1L57,36.8h-0.6l0.5-2.8c0.1-0.4,0.1-0.7,0.1-0.9c0-0.6-0.3-1-1.1-1
			c-0.9,0-1.7,0.6-2,2.2v0l-0.4,2.5H53l0.9-5h0.6l-0.2,1l0.4-0.6c0.5-0.4,1-0.5,1.5-0.5C57.2,31.7,57.7,32.2,57.7,33z"/>
	</g>
	<g class="st0">
		<path class="st2" d="M61.3,34.5c0,0.2,0,0.3,0,0.4c0,1.1,0.6,1.6,1.3,1.6c0.7,0,1.4-0.4,1.7-1.3h0.6c-0.5,1.2-1.4,1.7-2.4,1.7
			c-1.1,0-1.8-0.7-1.8-2c0-1.4,0.8-3.3,2.8-3.3c1.2,0,1.8,0.8,1.8,1.9c0,0.3,0,0.7-0.1,0.9H61.3z M61.4,34h3.2c0-0.2,0-0.3,0-0.4
			c0-1-0.5-1.4-1.3-1.4C62.2,32.1,61.6,33.1,61.4,34z"/>
	</g>
	<g class="st0">
		<path class="st2" d="M72.7,36.8H72l-0.5-4.5l-2,4.5h-0.7l-0.7-5h0.7l0.5,4.4l2-4.4h0.8l0.5,4.4l2.1-4.4h0.6L72.7,36.8z"/>
	</g>
	<g class="st0">
		<path class="st2" d="M86.8,36.8h-0.6l0.2-0.9l-0.4,0.5C85.5,36.8,85,37,84.4,37c-1.2,0-1.8-0.9-1.8-2c0-1.6,1-3.3,2.9-3.3
			c0.5,0,1,0.2,1.3,0.5l0.2,0.5l0.5-2.9H88L86.8,36.8z M86.7,34c0.2-1-0.2-1.9-1.3-1.9c-1.4,0-2.2,1.4-2.2,2.8
			c0,0.9,0.5,1.6,1.4,1.6c0.9,0,1.8-0.5,2-2.1L86.7,34z"/>
	</g>
	<g class="st0">
		<path class="st2" d="M90.4,36.8l0.9-5h0.6l-0.9,5H90.4z M92.2,30.6c0,0.3-0.2,0.5-0.5,0.5c-0.2,0-0.3-0.2-0.3-0.3
			c0-0.3,0.2-0.5,0.5-0.5C92.1,30.3,92.2,30.5,92.2,30.6z"/>
	</g>
	<g class="st0">
		<path class="st2" d="M101.9,32.9c0,0.3,0,0.5-0.1,0.9l-0.5,3h-0.6l0.5-2.7c0.1-0.5,0.1-0.7,0.1-1c0-0.6-0.3-1-0.9-1
			c-0.7,0-1.4,0.7-1.6,2.1l-0.5,2.6h-0.6l0.5-2.7c0.1-0.5,0.1-0.8,0.1-1c0-0.6-0.3-1-0.9-1c-0.7,0-1.4,0.7-1.6,2.1l-0.5,2.6h-0.6
			l0.9-5h0.6L96,32.7l0.4-0.6c0.3-0.3,0.8-0.4,1.2-0.4c0.8,0,1.2,0.4,1.3,1.1l0.5-0.6c0.3-0.3,0.8-0.4,1.2-0.4
			C101.5,31.7,101.9,32.2,101.9,32.9z"/>
	</g>
	<g class="st0">
		<path class="st2" d="M105.5,34.5c0,0.2,0,0.3,0,0.4c0,1.1,0.6,1.6,1.3,1.6c0.7,0,1.4-0.4,1.7-1.3h0.6c-0.5,1.2-1.4,1.7-2.4,1.7
			c-1.1,0-1.8-0.7-1.8-2c0-1.4,0.8-3.3,2.8-3.3c1.2,0,1.8,0.8,1.8,1.9c0,0.3,0,0.7-0.1,0.9H105.5z M105.6,34h3.2c0-0.2,0-0.3,0-0.4
			c0-1-0.5-1.4-1.3-1.4C106.4,32.1,105.9,33.1,105.6,34z"/>
	</g>
	<g class="st0">
		<path class="st2" d="M116.9,33c0,0.3,0,0.5-0.1,1l-0.5,2.8h-0.6l0.5-2.8c0.1-0.4,0.1-0.7,0.1-0.9c0-0.6-0.3-1-1.1-1
			c-0.9,0-1.7,0.6-2,2.2v0l-0.4,2.5h-0.6l0.9-5h0.6l-0.2,1l0.4-0.6c0.5-0.4,1-0.5,1.5-0.5C116.4,31.7,116.9,32.2,116.9,33z"/>
	</g>
	<g class="st0">
		<path class="st2" d="M123.7,33.2h-0.6c-0.1-0.7-0.4-1.1-1.1-1.1c-0.8,0-1.1,0.5-1.1,1c0,0.5,0.4,0.8,1,1c1,0.3,1.5,0.7,1.5,1.5
			c0,0.9-0.8,1.5-1.9,1.5c-1.2,0-1.8-0.7-1.9-1.6h0.6c0.1,0.8,0.6,1.1,1.3,1.1c0.7,0,1.2-0.4,1.2-1c0-0.5-0.3-0.8-1.2-1
			c-0.7-0.2-1.4-0.5-1.4-1.4c0-0.8,0.7-1.5,1.8-1.5C123.2,31.7,123.7,32.3,123.7,33.2z"/>
	</g>
	<g class="st0">
		<path class="st2" d="M126.5,36.8l0.9-5h0.6l-0.9,5H126.5z M128.3,30.6c0,0.3-0.2,0.5-0.5,0.5c-0.2,0-0.3-0.2-0.3-0.3
			c0-0.3,0.2-0.5,0.5-0.5C128.1,30.3,128.3,30.5,128.3,30.6z"/>
	</g>
	<g class="st0">
		<path class="st2" d="M135.7,33.9c0,1.3-0.8,3.1-2.8,3.1c-1.5,0-2.1-1-2.1-2.2c0-1.3,0.8-3.1,2.8-3.1
			C135,31.7,135.7,32.7,135.7,33.9z M135,33.9c0-1-0.6-1.7-1.5-1.7c-1.4,0-2.1,1.4-2.1,2.6c0,1,0.6,1.8,1.5,1.8
			C134.3,36.5,135,35.1,135,33.9z"/>
	</g>
	<g class="st0">
		<path class="st2" d="M143.1,33c0,0.3,0,0.5-0.1,1l-0.5,2.8h-0.6l0.5-2.8c0.1-0.4,0.1-0.7,0.1-0.9c0-0.6-0.3-1-1.1-1
			c-0.9,0-1.7,0.6-2,2.2v0l-0.4,2.5h-0.6l0.9-5h0.6l-0.2,1l0.4-0.6c0.5-0.4,1-0.5,1.5-0.5C142.6,31.7,143.1,32.2,143.1,33z"/>
	</g>
	<g class="st0">
		<path class="st2" d="M152.3,35.4c-0.1,0.3-0.1,0.5-0.1,0.6c0,0.4,0.3,0.5,0.8,0.4l-0.1,0.4c-0.2,0-0.3,0.1-0.5,0.1
			c-0.5,0-0.8-0.2-0.8-0.7c0-0.2,0-0.4,0.1-0.8l0.6-3.2h-0.6l0.1-0.5h0.6l0.2-1.1h0.6l-0.2,1.1h0.9l-0.1,0.5h-0.9L152.3,35.4z"/>
	</g>
	<g class="st0">
		<path class="st2" d="M161.1,33.9c0,1.3-0.8,3.1-2.8,3.1c-1.5,0-2.1-1-2.1-2.2c0-1.3,0.8-3.1,2.8-3.1
			C160.5,31.7,161.1,32.7,161.1,33.9z M160.5,33.9c0-1-0.6-1.7-1.5-1.7c-1.4,0-2.1,1.4-2.1,2.6c0,1,0.6,1.8,1.5,1.8
			C159.8,36.5,160.5,35.1,160.5,33.9z"/>
	</g>
	<g class="st0">
		<path class="st2" d="M173.4,36.8h-0.6l0.2-0.9l-0.4,0.5c-0.4,0.4-0.9,0.5-1.5,0.5c-1.2,0-1.8-0.9-1.8-2c0-1.6,1-3.3,2.9-3.3
			c0.5,0,1,0.2,1.3,0.5l0.2,0.5l0.5-2.9h0.6L173.4,36.8z M173.3,34c0.2-1-0.2-1.9-1.3-1.9c-1.4,0-2.2,1.4-2.2,2.8
			c0,0.9,0.5,1.6,1.4,1.6c0.9,0,1.8-0.5,2-2.1L173.3,34z"/>
	</g>
	<g class="st0">
		<path class="st2" d="M177.7,34.5c0,0.2,0,0.3,0,0.4c0,1.1,0.6,1.6,1.3,1.6c0.7,0,1.4-0.4,1.7-1.3h0.6c-0.5,1.2-1.4,1.7-2.4,1.7
			c-1.1,0-1.8-0.7-1.8-2c0-1.4,0.8-3.3,2.8-3.3c1.2,0,1.8,0.8,1.8,1.9c0,0.3,0,0.7-0.1,0.9H177.7z M177.7,34h3.2c0-0.2,0-0.3,0-0.4
			c0-1-0.5-1.4-1.3-1.4C178.5,32.1,178,33.1,177.7,34z"/>
	</g>
	<g class="st0">
		<path class="st2" d="M185.2,35.4c-0.1,0.3-0.1,0.5-0.1,0.6c0,0.4,0.3,0.5,0.8,0.4l-0.1,0.4c-0.2,0-0.3,0.1-0.5,0.1
			c-0.5,0-0.8-0.2-0.8-0.7c0-0.2,0-0.4,0.1-0.8l0.6-3.2h-0.6l0.1-0.5h0.6l0.2-1.1h0.6l-0.2,1.1h0.9l-0.1,0.5h-0.9L185.2,35.4z"/>
	</g>
	<g class="st0">
		<path class="st2" d="M193.4,32.9c0,0.2,0,0.4-0.1,0.7l-0.3,1.8c-0.1,0.4-0.1,0.8-0.2,1.4h-0.6l0.1-0.9l-0.3,0.5
			c-0.4,0.4-0.9,0.6-1.5,0.6c-0.7,0-1.4-0.4-1.4-1.3c0-1.5,1.6-2,3.6-1.8l0-0.2c0.1-0.4,0.1-0.5,0.1-0.7c0-0.5-0.3-0.8-0.9-0.8
			c-0.8,0-1.3,0.4-1.5,1.2h-0.6c0.2-1,1-1.6,2.2-1.6C193,31.7,193.4,32.2,193.4,32.9z M192.6,34.9l0.1-0.6c-1.6-0.2-2.8,0.3-2.8,1.3
			c0,0.6,0.4,0.9,1,0.9C191.6,36.5,192.4,35.8,192.6,34.9z"/>
	</g>
	<g class="st0">
		<path class="st2" d="M196.3,36.8l0.9-5h0.6l-0.9,5H196.3z M198.1,30.6c0,0.3-0.2,0.5-0.5,0.5c-0.2,0-0.3-0.2-0.3-0.3
			c0-0.3,0.2-0.5,0.5-0.5C197.9,30.3,198.1,30.5,198.1,30.6z"/>
	</g>
	<g class="st0">
		<path class="st2" d="M201.3,35.5c-0.1,0.4-0.1,0.5-0.1,0.6c0,0.3,0.2,0.4,0.5,0.3l-0.1,0.4c-0.2,0-0.3,0-0.5,0
			c-0.4,0-0.6-0.1-0.6-0.5c0-0.1,0-0.3,0.1-0.8l1-5.7h0.6L201.3,35.5z"/>
	</g>
	<g class="st0">
		<path class="st2" d="M208.7,33.2h-0.6c-0.1-0.7-0.4-1.1-1.1-1.1c-0.8,0-1.1,0.5-1.1,1c0,0.5,0.4,0.8,1,1c1,0.3,1.5,0.7,1.5,1.5
			c0,0.9-0.8,1.5-1.9,1.5c-1.2,0-1.8-0.7-1.9-1.6h0.6c0.1,0.8,0.6,1.1,1.3,1.1c0.7,0,1.2-0.4,1.2-1c0-0.5-0.3-0.8-1.2-1
			c-0.7-0.2-1.4-0.5-1.4-1.4c0-0.8,0.7-1.5,1.8-1.5C208.1,31.7,208.7,32.3,208.7,33.2z"/>
	</g>
</g>
</svg>
