<?xml version="1.0" encoding="UTF-8"?><svg xmlns="http://www.w3.org/2000/svg" xmlns:xlink="http://www.w3.org/1999/xlink" fill-opacity="1" color-rendering="auto" color-interpolation="auto" text-rendering="auto" stroke="black" stroke-linecap="square" width="2004" stroke-miterlimit="10" shape-rendering="auto" stroke-opacity="1" fill="black" stroke-dasharray="none" font-weight="normal" stroke-width="1" height="1612" font-family="'Dialog'" font-style="normal" stroke-linejoin="miter" font-size="12px" stroke-dashoffset="0" image-rendering="auto">
  <!--Generated by ySVG 2.5-->
  <defs id="genericDefs"/>
  <g>
    <defs id="defs1">
      <clipPath clipPathUnits="userSpaceOnUse" id="clipPath1">
        <path d="M0 0 L2004 0 L2004 1612 L0 1612 L0 0 Z"/>
      </clipPath>
      <clipPath clipPathUnits="userSpaceOnUse" id="clipPath2">
        <path d="M-157 -25 L1847 -25 L1847 1587 L-157 1587 L-157 -25 Z"/>
      </clipPath>
    </defs>
    <g fill="white" text-rendering="geometricPrecision" shape-rendering="geometricPrecision" transform="translate(157,25)" stroke="white">
      <rect x="-157" width="2004" height="1612" y="-25" clip-path="url(#clipPath2)" stroke="none"/>
    </g>
    <g fill="lime" text-rendering="geometricPrecision" shape-rendering="geometricPrecision" transform="matrix(1,0,0,1,157,25)" stroke="lime">
      <path d="M1468.2891 475.9756 L1545.4436 442 L1654.5564 442 L1731.7109 475.9756 L1731.7109 524.0244 L1654.5564 558 L1545.4436 558 L1468.2891 524.0244 Z" fill-rule="evenodd" clip-path="url(#clipPath2)" stroke="none"/>
    </g>
    <g text-rendering="geometricPrecision" stroke-miterlimit="1.45" shape-rendering="geometricPrecision" transform="matrix(1,0,0,1,157,25)" stroke-linecap="butt">
      <path fill="none" d="M1468.2891 475.9756 L1545.4436 442 L1654.5564 442 L1731.7109 475.9756 L1731.7109 524.0244 L1654.5564 558 L1545.4436 558 L1468.2891 524.0244 Z" fill-rule="evenodd" clip-path="url(#clipPath2)"/>
      <text x="1475.2891" xml:space="preserve" y="504.7139" clip-path="url(#clipPath2)" font-family="sans-serif" stroke="none">Psykorgasm (Villager, Appr Seer) DEAD_Day3</text>
    </g>
    <g fill="lime" text-rendering="geometricPrecision" shape-rendering="geometricPrecision" transform="matrix(1,0,0,1,157,25)" stroke="lime">
      <rect x="1088.2891" width="263.4219" height="116" y="582" clip-path="url(#clipPath2)" stroke="none"/>
    </g>
    <g text-rendering="geometricPrecision" stroke-miterlimit="1.45" shape-rendering="geometricPrecision" transform="matrix(1,0,0,1,157,25)" stroke-linecap="butt">
      <rect fill="none" x="1088.2891" width="263.4219" height="116" y="582" clip-path="url(#clipPath2)"/>
      <text x="1166.9756" xml:space="preserve" y="644.7139" clip-path="url(#clipPath2)" font-family="sans-serif" stroke="none">Bearbeast (Villager)</text>
    </g>
    <g fill="rgb(255,204,0)" text-rendering="geometricPrecision" shape-rendering="geometricPrecision" transform="matrix(1,0,0,1,157,25)" stroke="rgb(255,204,0)">
      <rect x="368.2891" width="263.4219" height="116" y="862" clip-path="url(#clipPath2)" stroke="none"/>
    </g>
    <g text-rendering="geometricPrecision" stroke-miterlimit="1.45" shape-rendering="geometricPrecision" transform="matrix(1,0,0,1,157,25)" stroke-linecap="butt">
      <rect fill="none" x="368.2891" width="263.4219" height="116" y="862" clip-path="url(#clipPath2)"/>
      <text x="457.9795" xml:space="preserve" y="924.7139" clip-path="url(#clipPath2)" font-family="sans-serif" stroke="none">Nightingalez (?)</text>
    </g>
    <g fill="rgb(255,204,0)" text-rendering="geometricPrecision" shape-rendering="geometricPrecision" transform="matrix(1,0,0,1,157,25)" stroke="rgb(255,204,0)">
      <rect x="348.2891" width="263.4219" height="116" y="722" clip-path="url(#clipPath2)" stroke="none"/>
    </g>
    <g text-rendering="geometricPrecision" stroke-miterlimit="1.45" shape-rendering="geometricPrecision" transform="matrix(1,0,0,1,157,25)" stroke-linecap="butt">
      <rect fill="none" x="348.2891" width="263.4219" height="116" y="722" clip-path="url(#clipPath2)"/>
      <text x="450.6592" xml:space="preserve" y="784.7139" clip-path="url(#clipPath2)" font-family="sans-serif" stroke="none">IrGreed (?)</text>
    </g>
    <g fill="lime" text-rendering="geometricPrecision" shape-rendering="geometricPrecision" transform="matrix(1,0,0,1,157,25)" stroke="lime">
      <path d="M28.2891 615.9756 L105.4435 582 L214.5565 582 L291.7109 615.9756 L291.7109 664.0244 L214.5565 698 L105.4435 698 L28.2891 664.0244 Z" fill-rule="evenodd" clip-path="url(#clipPath2)" stroke="none"/>
    </g>
    <g text-rendering="geometricPrecision" stroke-miterlimit="1.45" shape-rendering="geometricPrecision" transform="matrix(1,0,0,1,157,25)" stroke-linecap="butt">
      <path fill="none" d="M28.2891 615.9756 L105.4435 582 L214.5565 582 L291.7109 615.9756 L291.7109 664.0244 L214.5565 698 L105.4435 698 L28.2891 664.0244 Z" fill-rule="evenodd" clip-path="url(#clipPath2)"/>
      <text x="46.2871" xml:space="preserve" y="644.7139" clip-path="url(#clipPath2)" font-family="sans-serif" stroke="none">ItalianTomato (Villager, Seer) DEAD_Day5</text>
    </g>
    <g fill="rgb(255,204,0)" text-rendering="geometricPrecision" shape-rendering="geometricPrecision" transform="matrix(1,0,0,1,157,25)" stroke="rgb(255,204,0)">
      <rect x="-131.7109" width="263.4219" height="133.3333" y="393.3333" clip-path="url(#clipPath2)" stroke="none"/>
    </g>
    <g text-rendering="geometricPrecision" stroke-miterlimit="1.45" shape-rendering="geometricPrecision" transform="matrix(1,0,0,1,157,25)" stroke-linecap="butt">
      <rect fill="none" x="-131.7109" width="263.4219" height="133.3333" y="393.3333" clip-path="url(#clipPath2)"/>
      <text x="-26.0127" xml:space="preserve" y="464.7139" clip-path="url(#clipPath2)" font-family="sans-serif" stroke="none">Benny (?)</text>
    </g>
    <g fill="lime" text-rendering="geometricPrecision" shape-rendering="geometricPrecision" transform="matrix(1,0,0,1,157,25)" stroke="lime">
      <rect x="-131.7109" width="263.4219" height="133.3333" y="213.3333" clip-path="url(#clipPath2)" stroke="none"/>
    </g>
    <g text-rendering="geometricPrecision" stroke-miterlimit="1.45" shape-rendering="geometricPrecision" transform="matrix(1,0,0,1,157,25)" stroke-linecap="butt">
      <rect fill="none" x="-131.7109" width="263.4219" height="133.3333" y="213.3333" clip-path="url(#clipPath2)"/>
      <text x="-52.3682" xml:space="preserve" y="284.7139" clip-path="url(#clipPath2)" font-family="sans-serif" stroke="none">70140210 (Villager)</text>
    </g>
    <g fill="rgb(255,204,0)" text-rendering="geometricPrecision" shape-rendering="geometricPrecision" transform="matrix(1,0,0,1,157,25)" stroke="rgb(255,204,0)">
      <rect x="488.2891" width="263.4219" height="133.3333" y="1153.3333" clip-path="url(#clipPath2)" stroke="none"/>
    </g>
    <g text-rendering="geometricPrecision" stroke-miterlimit="1.45" shape-rendering="geometricPrecision" transform="matrix(1,0,0,1,157,25)" stroke-linecap="butt">
      <rect fill="none" x="488.2891" width="263.4219" height="133.3333" y="1153.3333" clip-path="url(#clipPath2)"/>
      <text x="576.6436" xml:space="preserve" y="1224.7139" clip-path="url(#clipPath2)" font-family="sans-serif" stroke="none">Shredderchu (?)</text>
    </g>
    <g fill="red" text-rendering="geometricPrecision" shape-rendering="geometricPrecision" transform="matrix(1,0,0,1,157,25)" stroke="red">
      <path d="M668.2891 212.3858 L745.4435 173.3333 L854.5565 173.3333 L931.7109 212.3858 L931.7109 267.6142 L854.5565 306.6667 L745.4435 306.6667 L668.2891 267.6142 Z" fill-rule="evenodd" clip-path="url(#clipPath2)" stroke="none"/>
    </g>
    <g text-rendering="geometricPrecision" stroke-miterlimit="1.45" shape-rendering="geometricPrecision" transform="matrix(1,0,0,1,157,25)" stroke-linecap="butt">
      <path fill="none" d="M668.2891 212.3858 L745.4435 173.3333 L854.5565 173.3333 L931.7109 212.3858 L931.7109 267.6142 L854.5565 306.6667 L745.4435 306.6667 L668.2891 267.6142 Z" fill-rule="evenodd" clip-path="url(#clipPath2)"/>
      <text x="706.3057" xml:space="preserve" y="244.7139" clip-path="url(#clipPath2)" font-family="sans-serif" stroke="none">YashMore (Werewolf) DEAD_Day3</text>
    </g>
    <g fill="lime" text-rendering="geometricPrecision" shape-rendering="geometricPrecision" transform="matrix(1,0,0,1,157,25)" stroke="lime">
      <rect x="188.2891" width="263.4219" height="111.6667" y="444.1667" clip-path="url(#clipPath2)" stroke="none"/>
    </g>
    <g text-rendering="geometricPrecision" stroke-miterlimit="1.45" shape-rendering="geometricPrecision" transform="matrix(1,0,0,1,157,25)" stroke-linecap="butt">
      <rect fill="none" x="188.2891" width="263.4219" height="111.6667" y="444.1667" clip-path="url(#clipPath2)"/>
      <text x="273.6465" xml:space="preserve" y="504.7139" clip-path="url(#clipPath2)" font-family="sans-serif" stroke="none">H3x3d9 (Villager)</text>
    </g>
    <g fill="lime" text-rendering="geometricPrecision" shape-rendering="geometricPrecision" transform="matrix(1,0,0,1,157,25)" stroke="lime">
      <path d="M28.2891 1196.873 L105.4435 1164.1666 L214.5565 1164.1666 L291.7109 1196.873 L291.7109 1243.127 L214.5565 1275.8334 L105.4435 1275.8334 L28.2891 1243.127 Z" fill-rule="evenodd" clip-path="url(#clipPath2)" stroke="none"/>
    </g>
    <g text-rendering="geometricPrecision" stroke-miterlimit="1.45" shape-rendering="geometricPrecision" font-family="sans-serif" transform="matrix(1,0,0,1,157,25)" stroke-linecap="butt">
      <text x="77.96" xml:space="preserve" y="1224.7139" clip-path="url(#clipPath2)" stroke="none">L_Bane (Villager) DEAD_Day4</text>
      <path fill="none" d="M28.2891 1196.873 L105.4435 1164.1666 L214.5565 1164.1666 L291.7109 1196.873 L291.7109 1243.127 L214.5565 1275.8334 L105.4435 1275.8334 L28.2891 1243.127 Z" clip-path="url(#clipPath2)" fill-rule="evenodd"/>
    </g>
    <g fill="rgb(255,204,0)" text-rendering="geometricPrecision" shape-rendering="geometricPrecision" transform="matrix(1,0,0,1,157,25)" stroke="rgb(255,204,0)">
      <rect x="328.2891" width="263.4219" height="111.6667" y="1004.1667" clip-path="url(#clipPath2)" stroke="none"/>
    </g>
    <g text-rendering="geometricPrecision" stroke-miterlimit="1.45" shape-rendering="geometricPrecision" transform="matrix(1,0,0,1,157,25)" stroke-linecap="butt">
      <rect fill="none" x="328.2891" width="263.4219" height="111.6667" y="1004.1667" clip-path="url(#clipPath2)"/>
      <text x="417.3057" xml:space="preserve" y="1064.7139" clip-path="url(#clipPath2)" font-family="sans-serif" stroke="none">Neonjuggalo (?)</text>
    </g>
    <g fill="red" text-rendering="geometricPrecision" shape-rendering="geometricPrecision" transform="matrix(1,0,0,1,157,25)" stroke="red">
      <path d="M1388.2891 616.873 L1465.4436 584.1667 L1574.5564 584.1667 L1651.7109 616.873 L1651.7109 663.127 L1574.5564 695.8333 L1465.4436 695.8333 L1388.2891 663.127 Z" fill-rule="evenodd" clip-path="url(#clipPath2)" stroke="none"/>
    </g>
    <g text-rendering="geometricPrecision" stroke-miterlimit="1.45" shape-rendering="geometricPrecision" transform="matrix(1,0,0,1,157,25)" stroke-linecap="butt">
      <path fill="none" d="M1388.2891 616.873 L1465.4436 584.1667 L1574.5564 584.1667 L1651.7109 616.873 L1651.7109 663.127 L1574.5564 695.8333 L1465.4436 695.8333 L1388.2891 663.127 Z" fill-rule="evenodd" clip-path="url(#clipPath2)"/>
      <text x="1438.9795" xml:space="preserve" y="644.7139" clip-path="url(#clipPath2)" font-family="sans-serif" stroke="none">Tollto (Werewolf) DEAD_Day4</text>
    </g>
    <g fill="rgb(255,204,0)" text-rendering="geometricPrecision" shape-rendering="geometricPrecision" transform="matrix(1,0,0,1,157,25)" stroke="rgb(255,204,0)">
      <rect x="1448.2891" width="263.4219" height="138.5" y="270.75" clip-path="url(#clipPath2)" stroke="none"/>
    </g>
    <g text-rendering="geometricPrecision" stroke-miterlimit="1.45" shape-rendering="geometricPrecision" transform="matrix(1,0,0,1,157,25)" stroke-linecap="butt">
      <rect fill="none" x="1448.2891" width="263.4219" height="138.5" y="270.75" clip-path="url(#clipPath2)"/>
      <text x="1554.3242" xml:space="preserve" y="344.7139" clip-path="url(#clipPath2)" font-family="sans-serif" stroke="none">Fused (?)</text>
    </g>
    <g fill="lime" text-rendering="geometricPrecision" shape-rendering="geometricPrecision" transform="matrix(1,0,0,1,157,25)" stroke="lime">
      <rect x="488.2891" width="263.4219" height="138.5" y="390.75" clip-path="url(#clipPath2)" stroke="none"/>
    </g>
    <g text-rendering="geometricPrecision" stroke-miterlimit="1.45" shape-rendering="geometricPrecision" transform="matrix(1,0,0,1,157,25)" stroke-linecap="butt">
      <rect fill="none" x="488.2891" width="263.4219" height="138.5" y="390.75" clip-path="url(#clipPath2)"/>
      <text x="562.9883" xml:space="preserve" y="464.7139" clip-path="url(#clipPath2)" font-family="sans-serif" stroke="none">Nrkn (Villager, Priest)</text>
    </g>
    <g fill="red" text-rendering="geometricPrecision" shape-rendering="geometricPrecision" transform="matrix(1,0,0,1,157,25)" stroke="red">
      <path d="M1088.2891 31.3157 L1165.4436 -9.25 L1274.5564 -9.25 L1351.7109 31.3157 L1351.7109 88.6843 L1274.5564 129.25 L1165.4436 129.25 L1088.2891 88.6843 Z" fill-rule="evenodd" clip-path="url(#clipPath2)" stroke="none"/>
    </g>
    <g text-rendering="geometricPrecision" stroke-miterlimit="1.45" shape-rendering="geometricPrecision" transform="matrix(1,0,0,1,157,25)" stroke-linecap="butt">
      <path fill="none" d="M1088.2891 31.3157 L1165.4436 -9.25 L1274.5564 -9.25 L1351.7109 31.3157 L1351.7109 88.6843 L1274.5564 129.25 L1165.4436 129.25 L1088.2891 88.6843 Z" fill-rule="evenodd" clip-path="url(#clipPath2)"/>
      <text x="1134.3096" xml:space="preserve" y="64.7139" clip-path="url(#clipPath2)" font-family="sans-serif" stroke="none">Kirarun (Werewolf) DEAD_Day5</text>
    </g>
    <g fill="lime" text-rendering="geometricPrecision" shape-rendering="geometricPrecision" transform="matrix(1,0,0,1,157,25)" stroke="lime">
      <path d="M1088.2891 1498.7256 L1165.4436 1468.6389 L1274.5564 1468.6389 L1351.7109 1498.7256 L1351.7109 1541.2744 L1274.5564 1571.3611 L1165.4436 1571.3611 L1088.2891 1541.2744 Z" fill-rule="evenodd" clip-path="url(#clipPath2)" stroke="none"/>
    </g>
    <g text-rendering="geometricPrecision" stroke-miterlimit="1.45" shape-rendering="geometricPrecision" transform="matrix(1,0,0,1,157,25)" stroke-linecap="butt">
      <path fill="none" d="M1088.2891 1498.7256 L1165.4436 1468.6389 L1274.5564 1468.6389 L1351.7109 1498.7256 L1351.7109 1541.2744 L1274.5564 1571.3611 L1165.4436 1571.3611 L1088.2891 1541.2744 Z" fill-rule="evenodd" clip-path="url(#clipPath2)"/>
      <text x="1101.6143" xml:space="preserve" y="1524.7139" clip-path="url(#clipPath2)" font-family="sans-serif" stroke="none">ShadarHaran (Villager, Hunter) DEAD_Day4</text>
    </g>
    <g fill="rgb(255,204,0)" text-rendering="geometricPrecision" shape-rendering="geometricPrecision" transform="matrix(1,0,0,1,157,25)" stroke="rgb(255,204,0)">
      <rect x="28.2891" width="263.4219" height="102.7222" y="1308.6389" clip-path="url(#clipPath2)" stroke="none"/>
    </g>
    <g text-rendering="geometricPrecision" stroke-miterlimit="1.45" shape-rendering="geometricPrecision" transform="matrix(1,0,0,1,157,25)" stroke-linecap="butt">
      <rect fill="none" x="28.2891" width="263.4219" height="102.7222" y="1308.6389" clip-path="url(#clipPath2)"/>
      <text x="127.334" xml:space="preserve" y="1364.7139" clip-path="url(#clipPath2)" font-family="sans-serif" stroke="none">Simmmo (?)</text>
    </g>
    <g fill="rgb(255,204,0)" text-rendering="geometricPrecision" shape-rendering="geometricPrecision" transform="matrix(1,0,0,1,157,25)" stroke="rgb(255,204,0)">
      <rect x="1568.2891" width="263.4219" height="102.7222" y="768.6389" clip-path="url(#clipPath2)" stroke="none"/>
    </g>
    <g text-rendering="geometricPrecision" stroke-miterlimit="1.45" shape-rendering="geometricPrecision" transform="matrix(1,0,0,1,157,25)" stroke-linecap="butt">
      <rect fill="none" x="1568.2891" width="263.4219" height="102.7222" y="768.6389" clip-path="url(#clipPath2)"/>
      <text x="1674.3242" xml:space="preserve" y="824.7139" clip-path="url(#clipPath2)" font-family="sans-serif" stroke="none">Titan2 (?)</text>
    </g>
    <g fill="rgb(255,204,0)" text-rendering="geometricPrecision" shape-rendering="geometricPrecision" transform="matrix(1,0,0,1,157,25)" stroke="rgb(255,204,0)">
      <rect x="1428.2891" width="263.4219" height="159.0833" y="80.4583" clip-path="url(#clipPath2)" stroke="none"/>
    </g>
    <g text-rendering="geometricPrecision" stroke-miterlimit="1.45" shape-rendering="geometricPrecision" transform="matrix(1,0,0,1,157,25)" stroke-linecap="butt">
      <rect fill="none" x="1428.2891" width="263.4219" height="159.0833" y="80.4583" clip-path="url(#clipPath2)"/>
      <text x="1511.6543" xml:space="preserve" y="164.7139" clip-path="url(#clipPath2)" font-family="sans-serif" stroke="none">ToasterPickins (?)</text>
    </g>
    <g fill="rgb(255,204,0)" text-rendering="geometricPrecision" shape-rendering="geometricPrecision" transform="matrix(1,0,0,1,157,25)" stroke="rgb(255,204,0)">
      <rect x="788.2891" width="263.4219" height="159.0833" y="360.4583" clip-path="url(#clipPath2)" stroke="none"/>
    </g>
    <g text-rendering="geometricPrecision" stroke-miterlimit="1.45" shape-rendering="geometricPrecision" transform="matrix(1,0,0,1,157,25)" stroke-linecap="butt">
      <rect fill="none" x="788.2891" width="263.4219" height="159.0833" y="360.4583" clip-path="url(#clipPath2)"/>
      <text x="892.9912" xml:space="preserve" y="444.7139" clip-path="url(#clipPath2)" font-family="sans-serif" stroke="none">Stilleto (?)</text>
    </g>
    <g fill="lime" text-rendering="geometricPrecision" shape-rendering="geometricPrecision" transform="matrix(1,0,0,1,157,25)" stroke="lime">
      <path d="M168.2891 248.0883 L245.4435 202.9583 L354.5565 202.9583 L431.7109 248.0883 L431.7109 311.9117 L354.5565 357.0417 L245.4435 357.0417 L168.2891 311.9117 Z" fill-rule="evenodd" clip-path="url(#clipPath2)" stroke="none"/>
    </g>
    <g text-rendering="geometricPrecision" stroke-miterlimit="1.45" shape-rendering="geometricPrecision" font-family="sans-serif" transform="matrix(1,0,0,1,157,25)" stroke-linecap="butt">
      <text x="218.3027" xml:space="preserve" y="284.7139" clip-path="url(#clipPath2)" stroke="none">Saiyura (Villager) DEAD_Day2</text>
      <path fill="none" d="M168.2891 248.0883 L245.4435 202.9583 L354.5565 202.9583 L431.7109 248.0883 L431.7109 311.9117 L354.5565 357.0417 L245.4435 357.0417 L168.2891 311.9117 Z" clip-path="url(#clipPath2)" fill-rule="evenodd"/>
    </g>
    <g fill="lime" text-rendering="geometricPrecision" shape-rendering="geometricPrecision" transform="matrix(1,0,0,1,157,25)" stroke="lime">
      <path d="M-131.7109 788.0883 L-54.5565 742.9583 L54.5565 742.9583 L131.7109 788.0883 L131.7109 851.9117 L54.5565 897.0417 L-54.5565 897.0417 L-131.7109 851.9117 Z" fill-rule="evenodd" clip-path="url(#clipPath2)" stroke="none"/>
    </g>
    <g text-rendering="geometricPrecision" stroke-miterlimit="1.45" shape-rendering="geometricPrecision" transform="matrix(1,0,0,1,157,25)" stroke-linecap="butt">
      <path fill="none" d="M-131.7109 788.0883 L-54.5565 742.9583 L54.5565 742.9583 L131.7109 788.0883 L131.7109 851.9117 L54.5565 897.0417 L-54.5565 897.0417 L-131.7109 851.9117 Z" fill-rule="evenodd" clip-path="url(#clipPath2)"/>
      <text x="-88.04" xml:space="preserve" y="824.7139" clip-path="url(#clipPath2)" font-family="sans-serif" stroke="none">Imanpoo1 (Villager) DEAD_Day2</text>
      <path fill="none" d="M1468.2625 500 L1250 500 L1250 573.96" clip-path="url(#clipPath2)" stroke="lime"/>
      <path fill="lime" d="M1250 581.96 L1255 569.96 L1250 572.96 L1245 569.96 Z" clip-path="url(#clipPath2)" stroke="none"/>
      <text x="1252" xml:space="preserve" y="505.4122" clip-path="url(#clipPath2)" font-family="sans-serif" stroke="none">Spare_Day2</text>
      <path fill="none" d="M631.7109 915 L1175 915 L1175 706" clip-path="url(#clipPath2)" stroke="red"/>
      <path fill="red" d="M1175 698 L1170 710 L1175 707 L1180 710 Z" clip-path="url(#clipPath2)" stroke="none"/>
      <text x="793.0903" xml:space="preserve" y="886.0264" clip-path="url(#clipPath2)" font-family="sans-serif" stroke="none">Hang_Day2</text>
      <path fill="none" d="M631.7109 925 L1185 925 L1185 706" clip-path="url(#clipPath2)" stroke="red"/>
      <path fill="red" d="M1185 698 L1180 710 L1185 707 L1190 710 Z" clip-path="url(#clipPath2)" stroke="none"/>
      <text x="1010.3627" xml:space="preserve" y="963.4014" clip-path="url(#clipPath2)" font-family="sans-serif" stroke="none">Hang_Day3</text>
      <path fill="none" d="M611.7109 775 L1155 775 L1155 706" clip-path="url(#clipPath2)" stroke="lime"/>
      <path fill="lime" d="M1155 698 L1150 710 L1155 707 L1160 710 Z" clip-path="url(#clipPath2)" stroke="none"/>
      <text x="626.8564" xml:space="preserve" y="744.3594" clip-path="url(#clipPath2)" font-family="sans-serif" stroke="none">Spare_Day2</text>
      <path fill="none" d="M611.7109 785 L1165 785 L1165 706" clip-path="url(#clipPath2)" stroke="red"/>
      <path fill="red" d="M1165 698 L1160 710 L1165 707 L1170 710 Z" clip-path="url(#clipPath2)" stroke="none"/>
      <text x="1148.2163" xml:space="preserve" y="785.7429" clip-path="url(#clipPath2)" font-family="sans-serif" stroke="none">Hang_Day3</text>
      <path fill="none" d="M291.7109 665 L1080.2405 665" clip-path="url(#clipPath2)" stroke="lime"/>
      <path fill="lime" d="M1088.2405 665 L1076.2405 660 L1079.2405 665 L1076.2405 670 Z" clip-path="url(#clipPath2)" stroke="none"/>
      <text x="445.3988" xml:space="preserve" y="634.3594" clip-path="url(#clipPath2)" font-family="sans-serif" stroke="none">Spare_Day2</text>
      <path fill="none" d="M291.7109 655 L1080.2405 655" clip-path="url(#clipPath2)" stroke="lime"/>
      <path fill="lime" d="M1088.2405 655 L1076.2405 650 L1079.2405 655 L1076.2405 660 Z" clip-path="url(#clipPath2)" stroke="none"/>
      <text x="444.4396" xml:space="preserve" y="695.0684" clip-path="url(#clipPath2)" font-family="sans-serif" stroke="none">Spare_Day3</text>
      <path fill="none" d="M0 393.2878 L0 354.6667" clip-path="url(#clipPath2)" stroke="red"/>
      <path fill="red" d="M0 346.6667 L-5 358.6667 L0 355.6667 L5 358.6667 Z" clip-path="url(#clipPath2)" stroke="none"/>
      <text x="-65.375" xml:space="preserve" y="383.6966" clip-path="url(#clipPath2)" font-family="sans-serif" stroke="none">Hang_Day1</text>
      <path fill="none" d="M5 213.2845 L5 163.3333 L1190 163.3333 L1190 573.9744" clip-path="url(#clipPath2)" stroke="red"/>
      <path fill="red" d="M1190 581.9744 L1195 569.9744 L1190 572.9744 L1185 569.9744 Z" clip-path="url(#clipPath2)" stroke="none"/>
      <text x="1192" xml:space="preserve" y="348.561" clip-path="url(#clipPath2)" font-family="sans-serif" stroke="none">Hang_Day2</text>
      <path fill="none" d="M-5 213.304 L-5 153.3333 L1200 153.3333 L1200 573.9738" clip-path="url(#clipPath2)" stroke="lime"/>
      <path fill="lime" d="M1200 581.9738 L1205 569.9738 L1200 572.9738 L1195 569.9738 Z" clip-path="url(#clipPath2)" stroke="none"/>
      <text x="1131.291" xml:space="preserve" y="189.6573" clip-path="url(#clipPath2)" font-family="sans-serif" stroke="none">Spare_Day3</text>
      <path fill="none" d="M751.7109 1225 L1235 1225 L1235 706" clip-path="url(#clipPath2)" stroke="red"/>
      <path fill="red" d="M1235 698 L1230 710 L1235 707 L1240 710 Z" clip-path="url(#clipPath2)" stroke="none"/>
      <text x="1079.1895" xml:space="preserve" y="1196.0264" clip-path="url(#clipPath2)" font-family="sans-serif" stroke="none">Hang_Day2</text>
      <path fill="none" d="M751.7109 1215 L1225 1215 L1225 706" clip-path="url(#clipPath2)" stroke="lime"/>
      <path fill="lime" d="M1225 698 L1220 710 L1225 707 L1230 710 Z" clip-path="url(#clipPath2)" stroke="none"/>
      <text x="889.2822" xml:space="preserve" y="1255.0684" clip-path="url(#clipPath2)" font-family="sans-serif" stroke="none">Spare_Day3</text>
      <path fill="none" d="M320 555.8333 L320 645 L1080.2422 645" clip-path="url(#clipPath2)" stroke="red"/>
      <path fill="red" d="M1088.2422 645 L1076.2422 640 L1079.2422 645 L1076.2422 650 Z" clip-path="url(#clipPath2)" stroke="none"/>
      <text x="418.6097" xml:space="preserve" y="616.0264" clip-path="url(#clipPath2)" font-family="sans-serif" stroke="none">Hang_Day2</text>
      <path fill="none" d="M-131.75 280 L-141.7109 280 L-141.7109 1225 L20.2476 1225" clip-path="url(#clipPath2)" stroke="red"/>
      <path fill="red" d="M28.2476 1225 L16.2476 1220 L19.2476 1225 L16.2476 1230 Z" clip-path="url(#clipPath2)" stroke="none"/>
      <text x="-131.2691" xml:space="preserve" y="1196.0264" clip-path="url(#clipPath2)" font-family="sans-serif" stroke="none">Hang_Day4</text>
      <path fill="none" d="M488.2411 1225 L299.7109 1225" clip-path="url(#clipPath2)" stroke="red"/>
      <path fill="red" d="M291.7109 1225 L303.7109 1230 L300.7109 1225 L303.7109 1220 Z" clip-path="url(#clipPath2)" stroke="none"/>
      <text x="340.2328" xml:space="preserve" y="1220.3633" clip-path="url(#clipPath2)" font-family="sans-serif" stroke="none">Hang_Day4</text>
      <path fill="none" d="M1195 698 L1195 992 L-10 992 L-10 1215 L20.2517 1215" clip-path="url(#clipPath2)" stroke="red"/>
      <path fill="red" d="M28.2517 1215 L16.2517 1210 L19.2517 1215 L16.2517 1220 Z" clip-path="url(#clipPath2)" stroke="none"/>
      <text x="711.4375" xml:space="preserve" y="1030.4014" clip-path="url(#clipPath2)" font-family="sans-serif" stroke="none">Hang_Day4</text>
      <path fill="none" d="M201.7109 698 L201.7109 1156.1382" clip-path="url(#clipPath2)" stroke="red"/>
      <path fill="red" d="M201.7109 1164.1382 L206.7109 1152.1382 L201.7109 1155.1382 L196.7109 1152.1382 Z" clip-path="url(#clipPath2)" stroke="none"/>
      <text x="203.7109" xml:space="preserve" y="1070.6139" clip-path="url(#clipPath2)" font-family="sans-serif" stroke="none">Hang_Day4</text>
      <path fill="none" d="M368.2533 920 L221.7109 920 L221.7109 1156.1666" clip-path="url(#clipPath2)" stroke="red"/>
      <path fill="red" d="M221.7109 1164.1666 L226.7109 1152.1666 L221.7109 1155.1666 L216.7109 1152.1666 Z" clip-path="url(#clipPath2)" stroke="none"/>
      <text x="116.3359" xml:space="preserve" y="988.2211" clip-path="url(#clipPath2)" font-family="sans-serif" stroke="none">Hang_Day4</text>
      <path fill="none" d="M348.2557 780 L211.7109 780 L211.7109 1156.1198" clip-path="url(#clipPath2)" stroke="red"/>
      <path fill="red" d="M211.7109 1164.1198 L216.7109 1152.1198 L211.7109 1155.1198 L206.7109 1152.1198 Z" clip-path="url(#clipPath2)" stroke="none"/>
      <text x="220.5792" xml:space="preserve" y="800.9639" clip-path="url(#clipPath2)" font-family="sans-serif" stroke="none">Hang_Day4</text>
      <path fill="none" d="M591.7109 1065 L1215 1065 L1215 706" clip-path="url(#clipPath2)" stroke="red"/>
      <path fill="red" d="M1215 698 L1210 710 L1215 707 L1220 710 Z" clip-path="url(#clipPath2)" stroke="none"/>
      <text x="803.1871" xml:space="preserve" y="1036.0264" clip-path="url(#clipPath2)" font-family="sans-serif" stroke="none">Hang_Day2</text>
      <path fill="none" d="M591.7109 1055 L1205 1055 L1205 706" clip-path="url(#clipPath2)" stroke="red"/>
      <path fill="red" d="M1205 698 L1200 710 L1205 707 L1210 710 Z" clip-path="url(#clipPath2)" stroke="none"/>
      <text x="674.9749" xml:space="preserve" y="1093.4014" clip-path="url(#clipPath2)" font-family="sans-serif" stroke="none">Hang_Day3</text>
      <path fill="none" d="M460 1115.8334 L460 1215 L299.7109 1215" clip-path="url(#clipPath2)" stroke="red"/>
      <path fill="red" d="M291.7109 1215 L303.7109 1220 L300.7109 1215 L303.7109 1210 Z" clip-path="url(#clipPath2)" stroke="none"/>
      <text x="410.8125" xml:space="preserve" y="1213.8385" clip-path="url(#clipPath2)" font-family="sans-serif" stroke="none">Hang_Day4</text>
      <path fill="none" d="M1351.7109 630 L1380.2533 630" clip-path="url(#clipPath2)" stroke="red"/>
      <path fill="red" d="M1388.2533 630 L1376.2533 625 L1379.2533 630 L1376.2533 635 Z" clip-path="url(#clipPath2)" stroke="none"/>
      <text x="1338.9363" xml:space="preserve" y="625.3633" clip-path="url(#clipPath2)" font-family="sans-serif" stroke="none">Hang_Day3</text>
      <path fill="none" d="M1388.2533 640 L1359.7109 640" clip-path="url(#clipPath2)" stroke="red"/>
      <path fill="red" d="M1351.7109 640 L1363.7109 645 L1360.7109 640 L1363.7109 635 Z" clip-path="url(#clipPath2)" stroke="none"/>
      <text x="1338.3125" xml:space="preserve" y="694.0645" clip-path="url(#clipPath2)" font-family="sans-serif" stroke="none">Hang_Day2</text>
      <path fill="none" d="M1388.2533 650 L1359.7109 650" clip-path="url(#clipPath2)" stroke="red"/>
      <path fill="red" d="M1351.7109 650 L1363.7109 655 L1360.7109 650 L1363.7109 645 Z" clip-path="url(#clipPath2)" stroke="none"/>
      <text x="1337.6218" xml:space="preserve" y="664.0645" clip-path="url(#clipPath2)" font-family="sans-serif" stroke="none">Hang_Day3</text>
      <path fill="none" d="M1448.2637 340 L1240 340 L1240 573.9705" clip-path="url(#clipPath2)" stroke="red"/>
      <path fill="red" d="M1240 581.9705 L1245 569.9705 L1240 572.9705 L1235 569.9705 Z" clip-path="url(#clipPath2)" stroke="none"/>
      <text x="1299.0322" xml:space="preserve" y="326.2139" clip-path="url(#clipPath2)" font-family="sans-serif" stroke="none">Hang_Day3</text>
      <path fill="none" d="M620 529.25 L620 635 L1080.2605 635" clip-path="url(#clipPath2)" stroke="lime"/>
      <path fill="lime" d="M1088.2605 635 L1076.2605 630 L1079.2605 635 L1076.2605 640 Z" clip-path="url(#clipPath2)" stroke="none"/>
      <text x="569.7705" xml:space="preserve" y="603.6677" clip-path="url(#clipPath2)" font-family="sans-serif" stroke="none">Spare_Day2</text>
      <path fill="none" d="M1210 129.25 L1210 573.9724" clip-path="url(#clipPath2)" stroke="lime"/>
      <path fill="lime" d="M1210 581.9724 L1215 569.9724 L1210 572.9724 L1205 569.9724 Z" clip-path="url(#clipPath2)" stroke="none"/>
      <text x="1185.9961" xml:space="preserve" y="148.3145" clip-path="url(#clipPath2)" font-family="sans-serif" stroke="none">Spare_Day2</text>
      <path fill="none" d="M1220 129.25 L1220 573.9724" clip-path="url(#clipPath2)" stroke="lime"/>
      <path fill="lime" d="M1220 581.9724 L1225 569.9724 L1220 572.9724 L1215 569.9724 Z" clip-path="url(#clipPath2)" stroke="none"/>
      <text x="1158.3121" xml:space="preserve" y="453.673" clip-path="url(#clipPath2)" font-family="sans-serif" stroke="none">Spare_Day3</text>
      <path fill="none" d="M1285 1468.6389 L1285 706" clip-path="url(#clipPath2)" stroke="red"/>
      <path fill="red" d="M1285 698 L1280 710 L1285 707 L1290 710 Z" clip-path="url(#clipPath2)" stroke="none"/>
      <text x="1243.9619" xml:space="preserve" y="1088.0333" clip-path="url(#clipPath2)" font-family="sans-serif" stroke="none">Hang_Day1</text>
      <path fill="none" d="M1275 1468.6389 L1275 706" clip-path="url(#clipPath2)" stroke="red"/>
      <path fill="red" d="M1275 698 L1270 710 L1275 707 L1280 710 Z" clip-path="url(#clipPath2)" stroke="none"/>
      <text x="1317" xml:space="preserve" y="1307.9299" clip-path="url(#clipPath2)" font-family="sans-serif" stroke="none">Hang_Day2</text>
      <path fill="none" d="M1351.7109 1520 L1520 1520 L1520 703.8333" clip-path="url(#clipPath2)" stroke="red"/>
      <path fill="red" d="M1520 695.8333 L1515 707.8333 L1520 704.8333 L1525 707.8333 Z" clip-path="url(#clipPath2)" stroke="none"/>
      <text x="1454.625" xml:space="preserve" y="714.8978" clip-path="url(#clipPath2)" font-family="sans-serif" stroke="none">Hang_Day3</text>
      <path fill="none" d="M1265 1468.6389 L1265 706" clip-path="url(#clipPath2)" stroke="lime"/>
      <path fill="lime" d="M1265 698 L1260 710 L1265 707 L1270 710 Z" clip-path="url(#clipPath2)" stroke="none"/>
      <text x="1240.9961" xml:space="preserve" y="1410.4939" clip-path="url(#clipPath2)" font-family="sans-serif" stroke="none">Spare_Day3</text>
      <path fill="none" d="M291.7109 1365 L1255 1365 L1255 706" clip-path="url(#clipPath2)" stroke="red"/>
      <path fill="red" d="M1255 698 L1250 710 L1255 707 L1260 710 Z" clip-path="url(#clipPath2)" stroke="none"/>
      <text x="292.3411" xml:space="preserve" y="1336.0264" clip-path="url(#clipPath2)" font-family="sans-serif" stroke="none">Hang_Day2</text>
      <path fill="none" d="M291.7109 1355 L1245 1355 L1245 706" clip-path="url(#clipPath2)" stroke="red"/>
      <path fill="red" d="M1245 698 L1240 710 L1245 707 L1250 710 Z" clip-path="url(#clipPath2)" stroke="none"/>
      <text x="1236.6779" xml:space="preserve" y="1331.0891" clip-path="url(#clipPath2)" font-family="sans-serif" stroke="none">Hang_Day3</text>
      <path fill="none" d="M160 1308.6068 L160 1283.8654" clip-path="url(#clipPath2)" stroke="red"/>
      <path fill="red" d="M160 1275.8654 L155 1287.8654 L160 1284.8654 L165 1287.8654 Z" clip-path="url(#clipPath2)" stroke="none"/>
      <text x="162" xml:space="preserve" y="1298.0167" clip-path="url(#clipPath2)" font-family="sans-serif" stroke="none">Hang_Day4</text>
      <path fill="none" d="M1428.2406 160 L1230 160 L1230 573.9742" clip-path="url(#clipPath2)" stroke="red"/>
      <path fill="red" d="M1230 581.9742 L1235 569.9742 L1230 572.9742 L1225 569.9742 Z" clip-path="url(#clipPath2)" stroke="none"/>
      <text x="1334.569" xml:space="preserve" y="144.0645" clip-path="url(#clipPath2)" font-family="sans-serif" stroke="none">Hang_Day3</text>
      <path fill="none" d="M925 519.5417 L925 615 L1080.2491 615" clip-path="url(#clipPath2)" stroke="red"/>
      <path fill="red" d="M1088.2491 615 L1076.2491 610 L1079.2491 615 L1076.2491 620 Z" clip-path="url(#clipPath2)" stroke="none"/>
      <text x="893.3125" xml:space="preserve" y="570.3633" clip-path="url(#clipPath2)" font-family="sans-serif" stroke="none">Hang_Day2</text>
      <path fill="none" d="M915 519.5417 L915 625 L1080.2467 625" clip-path="url(#clipPath2)" stroke="red"/>
      <path fill="red" d="M1088.2467 625 L1076.2467 620 L1079.2467 625 L1076.2467 630 Z" clip-path="url(#clipPath2)" stroke="none"/>
      <text x="987.0555" xml:space="preserve" y="620.3633" clip-path="url(#clipPath2)" font-family="sans-serif" stroke="none">Hang_Day3</text>
      <path fill="none" d="M168.2533 280 L139.7109 280" clip-path="url(#clipPath2)" stroke="red"/>
      <path fill="red" d="M131.7109 280 L143.7109 285 L140.7109 280 L143.7109 275 Z" clip-path="url(#clipPath2)" stroke="none"/>
      <text x="117.8125" xml:space="preserve" y="251.0264" clip-path="url(#clipPath2)" font-family="sans-serif" stroke="none">Hang_Day1</text>
    </g>
  </g>
</svg>
